<?xml version="1.0" standalone="no"?>
<!DOCTYPE svg PUBLIC "-//W3C//DTD SVG 20010904//EN"
 "http://www.w3.org/TR/2001/REC-SVG-20010904/DTD/svg10.dtd">
<svg version="1.0" xmlns="http://www.w3.org/2000/svg"
 width="6912.000000pt" height="3456.000000pt" viewBox="0 0 6912.000000 3456.000000"
 preserveAspectRatio="xMidYMid meet">

<g transform="translate(0.000000,3456.000000) scale(0.100000,-0.100000)"
fill="#000000" stroke="none">
<path d="M11599 27400 c-64 -11 -118 -41 -166 -93 -54 -58 -70 -91 -82 -167
-32 -200 110 -372 309 -372 124 0 225 64 281 177 57 117 39 259 -47 354 -75
83 -183 120 -295 101z"/>
<path d="M3737 27074 c-4 -4 -7 -814 -7 -1801 l0 -1793 240 0 240 0 0 749 0
749 473 5 c504 5 538 8 728 62 471 134 747 526 726 1029 -20 486 -315 838
-797 952 -189 45 -218 47 -920 51 -371 3 -679 1 -683 -3z m1366 -404 c194 -33
298 -82 399 -188 108 -113 150 -240 151 -452 1 -154 -12 -220 -68 -339 -46
-97 -132 -183 -235 -233 -157 -76 -257 -88 -757 -88 l-383 0 0 660 0 660 389
0 c341 0 403 -2 504 -20z"/>
<path d="M15630 26665 l0 -355 -185 0 -185 0 0 -195 0 -195 185 0 184 0 3
-942 c3 -939 3 -943 25 -1021 64 -224 182 -352 393 -424 133 -45 213 -53 521
-53 l269 0 -2 198 -3 197 -250 6 c-138 3 -265 11 -283 17 -60 20 -122 62 -147
100 -55 84 -55 80 -55 1039 l0 883 370 0 370 0 -2 193 -3 192 -367 3 -368 2 0
355 0 355 -235 0 -235 0 0 -355z"/>
<path d="M7705 26344 c-291 -53 -500 -186 -647 -414 l-48 -75 0 228 0 227
-235 0 -235 0 0 -1415 0 -1415 235 0 235 0 0 778 c0 802 6 946 40 1086 60 238
205 404 420 478 97 33 142 40 300 47 l155 6 3 243 2 242 -72 -1 c-40 0 -109
-7 -153 -15z"/>
<path d="M9250 26329 c-275 -52 -521 -174 -706 -351 -290 -279 -434 -640 -434
-1090 0 -601 292 -1093 784 -1323 196 -92 372 -129 616 -129 331 0 588 72 838
237 250 165 443 419 540 712 130 392 102 866 -73 1215 -195 391 -555 654
-1000 730 -158 27 -415 26 -565 -1z m535 -419 c178 -48 302 -119 416 -237 133
-136 219 -301 263 -503 33 -155 25 -432 -18 -603 -77 -302 -278 -535 -558
-647 -311 -123 -687 -78 -935 113 -211 162 -327 408 -354 747 -24 303 31 562
162 760 138 211 306 323 579 384 98 23 340 15 445 -14z"/>
<path d="M13470 26336 c-242 -43 -434 -121 -610 -250 -131 -96 -290 -287 -370
-445 -178 -355 -210 -870 -80 -1276 130 -404 442 -726 828 -855 173 -57 278
-74 482 -74 432 1 742 120 1006 389 124 127 213 270 273 438 l30 87 -253 0
-253 0 -48 -97 c-41 -83 -62 -112 -139 -188 -136 -135 -267 -196 -485 -225
-171 -23 -399 13 -543 85 -289 145 -449 387 -492 743 l-7 52 1130 0 1129 0 7
46 c13 86 7 385 -9 484 -46 285 -170 535 -356 720 -178 179 -374 285 -635 346
-107 25 -142 28 -325 30 -136 2 -230 -1 -280 -10z m425 -400 c395 -70 652
-337 695 -721 5 -49 10 -96 10 -102 0 -10 -185 -13 -890 -13 l-890 0 0 24 c0
46 29 176 58 259 102 296 358 506 682 560 60 10 262 6 335 -7z"/>
<path d="M18225 26335 c-615 -99 -1050 -528 -1155 -1141 -24 -138 -29 -396
-10 -534 66 -491 331 -879 737 -1079 167 -82 333 -125 545 -142 351 -28 675
55 958 244 97 64 283 251 347 347 133 200 213 415 243 653 17 137 7 432 -19
559 -88 428 -336 762 -708 951 -123 62 -223 98 -362 128 -127 28 -442 35 -576
14z m511 -429 c278 -79 458 -233 584 -499 68 -143 99 -302 100 -505 1 -540
-275 -920 -746 -1027 -178 -40 -388 -29 -552 29 -286 102 -486 343 -563 677
-28 120 -37 388 -19 522 47 349 233 625 504 747 150 68 264 90 451 86 125 -3
165 -8 241 -30z"/>
<path d="M11420 24553 c0 -1846 1 -1805 -42 -1888 -22 -42 -55 -70 -113 -97
-44 -20 -69 -23 -222 -26 l-173 -4 0 -200 0 -200 238 5 c267 5 313 13 450 79
155 73 255 200 308 388 18 62 19 152 22 1883 l2 1817 -235 0 -235 0 0 -1757z"/>
<path d="M23238 20733 l-3 -748 -59 78 c-163 217 -444 387 -728 442 -170 33
-406 30 -568 -7 -489 -110 -857 -475 -985 -978 -99 -385 -55 -852 110 -1180
132 -261 364 -491 616 -609 340 -159 802 -160 1122 -1 172 86 346 235 442 380
l50 75 3 -262 2 -263 235 0 235 0 0 1910 0 1910 -235 0 -235 0 -2 -747z m-787
-629 c393 -73 667 -348 758 -759 30 -133 30 -377 2 -533 -37 -196 -148 -400
-292 -538 -114 -108 -235 -175 -389 -216 -73 -20 -109 -23 -255 -22 -143 0
-183 4 -250 22 -156 43 -283 116 -398 229 -246 242 -345 593 -286 1013 33 232
161 467 332 611 199 168 508 244 778 193z"/>
<path d="M3730 19455 l0 -1795 240 0 240 0 0 1795 0 1795 -240 0 -240 0 0
-1795z"/>
<path d="M8050 20845 l0 -355 -185 0 -185 0 0 -195 0 -195 183 -2 182 -3 6
-935 c5 -1006 4 -982 58 -1118 70 -176 214 -296 426 -354 73 -20 109 -22 403
-26 l322 -3 -2 198 -3 198 -255 5 c-253 5 -255 5 -315 33 -33 15 -68 36 -78
45 -30 27 -64 102 -76 167 -7 39 -11 343 -11 927 l0 868 370 0 370 0 -2 193
-3 192 -367 3 -368 2 0 355 0 355 -235 0 -235 0 0 -355z"/>
<path d="M6050 20529 c-155 -18 -310 -71 -451 -153 -83 -49 -218 -170 -265
-237 l-29 -42 -5 194 -5 194 -235 0 -235 0 -3 -1412 -2 -1413 240 0 240 0 0
853 c0 945 1 958 64 1129 46 124 90 189 183 278 128 122 265 180 465 199 315
30 589 -82 733 -299 54 -81 87 -158 117 -273 22 -81 22 -94 25 -984 l4 -903
234 0 235 0 0 880 c0 571 -4 915 -11 982 -45 419 -247 729 -584 893 -129 64
-218 90 -373 110 -123 16 -225 17 -342 4z"/>
<path d="M17240 20535 c-8 -2 -55 -9 -105 -15 -272 -37 -521 -197 -657 -421
l-38 -62 -2 224 -3 224 -232 3 -233 2 0 -1415 0 -1415 235 0 234 0 3 878 3
877 27 100 c60 222 165 363 329 444 126 62 217 82 397 88 l152 6 0 243 0 244
-47 -1 c-27 -1 -55 -3 -63 -4z"/>
<path d="M28720 20534 c-14 -2 -63 -9 -110 -15 -95 -13 -205 -46 -283 -85
-143 -72 -288 -202 -365 -327 l-37 -61 -5 220 -5 219 -235 0 -235 0 -3 -1412
-2 -1413 240 0 240 0 0 843 c0 730 2 856 16 938 43 251 163 432 349 523 114
57 207 77 388 83 l157 6 0 243 0 244 -42 -1 c-24 -1 -54 -3 -68 -5z"/>
<path d="M10648 20519 c-523 -64 -941 -404 -1096 -890 -66 -207 -76 -279 -76
-554 0 -223 2 -262 22 -355 114 -527 452 -907 929 -1049 162 -48 231 -56 448
-55 221 1 323 16 500 75 296 99 555 323 697 604 44 87 88 197 88 220 0 13 -36
15 -250 15 l-250 0 -29 -64 c-54 -119 -154 -241 -256 -313 -142 -99 -357 -152
-569 -140 -331 19 -617 198 -752 472 -46 93 -87 234 -99 343 l-7 62 1125 0
c818 0 1128 3 1133 11 13 21 17 363 5 461 -69 592 -452 1015 -1030 1139 -112
23 -407 34 -533 18z m343 -400 c428 -54 712 -351 743 -776 l4 -63 -892 0 -893
0 9 63 c38 279 171 502 382 641 186 122 399 167 647 135z"/>
<path d="M13620 20515 c-157 -24 -270 -59 -400 -124 -364 -182 -613 -521 -700
-951 -59 -289 -39 -644 50 -912 144 -429 495 -769 905 -873 252 -64 536 -58
765 17 221 72 455 245 589 438 l53 75 -5 -380 c-4 -333 -7 -391 -24 -470 -61
-271 -217 -470 -455 -579 -236 -108 -587 -106 -847 7 -200 86 -365 250 -431
427 l-22 60 -229 0 -229 0 0 -28 c0 -33 40 -178 69 -251 109 -271 386 -511
716 -620 331 -109 772 -114 1076 -10 406 138 697 453 804 869 45 173 45 166
45 1763 l0 1517 -235 0 -235 0 -2 -256 -3 -255 -42 63 c-47 72 -160 187 -248
254 -87 65 -284 159 -395 188 -177 47 -390 58 -570 31z m487 -414 c276 -54
497 -211 630 -449 166 -297 187 -723 52 -1049 -64 -153 -208 -332 -338 -419
-76 -51 -183 -100 -276 -126 -69 -19 -105 -22 -255 -22 -150 0 -186 3 -255 22
-370 103 -629 417 -685 829 -16 114 -8 370 13 468 38 170 115 329 221 456 201
241 556 356 893 290z"/>
<path d="M18670 20516 c-114 -19 -164 -31 -251 -62 -414 -148 -721 -494 -833
-939 -65 -259 -63 -621 4 -885 117 -459 472 -842 892 -964 316 -91 688 -67
949 63 176 88 369 252 458 390 l41 64 0 -261 0 -262 235 0 235 0 0 1415 0
1415 -235 0 -235 0 -2 -256 -3 -255 -42 63 c-57 88 -182 209 -285 279 -143 95
-263 145 -443 185 -98 21 -377 27 -485 10z m543 -425 c91 -24 223 -81 287
-124 209 -141 353 -369 406 -644 22 -110 25 -366 5 -473 -40 -225 -137 -416
-284 -560 -119 -116 -244 -188 -402 -232 -69 -19 -105 -22 -255 -22 -150 0
-186 3 -255 22 -370 103 -629 417 -685 829 -16 114 -8 370 13 468 89 404 361
677 746 750 107 20 321 13 424 -14z"/>
<path d="M25351 20515 c-488 -80 -840 -327 -1041 -730 -123 -247 -168 -471
-157 -780 14 -403 140 -723 386 -978 278 -288 656 -432 1089 -414 384 15 711
155 967 412 205 205 331 451 387 754 29 161 29 425 -1 595 -83 465 -343 819
-746 1011 -122 59 -201 85 -344 116 -126 26 -417 34 -540 14z m452 -419 c90
-20 227 -79 307 -132 122 -80 247 -230 316 -379 133 -288 130 -737 -7 -1024
-119 -250 -312 -414 -586 -498 -81 -25 -102 -27 -268 -27 -146 -1 -193 3 -250
18 -220 59 -393 182 -512 363 -127 194 -182 427 -169 723 12 281 71 461 214
649 122 160 316 275 530 316 96 18 328 13 425 -9z"/>
<path d="M54715 17800 c-150 -14 -329 -38 -358 -49 -14 -5 -28 -14 -31 -20 -4
-6 -7 -533 -7 -1172 0 -864 3 -1165 12 -1175 16 -19 396 -20 423 -1 16 12 17
45 19 434 2 391 3 424 20 440 15 15 36 18 130 18 84 0 119 -4 135 -15 24 -16
101 -136 195 -300 118 -208 169 -306 232 -450 25 -58 55 -113 66 -122 19 -16
45 -18 221 -18 199 0 238 6 238 35 0 16 -135 294 -233 480 -55 105 -80 149
-148 264 -8 14 -37 60 -66 103 -28 43 -53 86 -54 96 -6 36 14 62 69 94 115 65
195 170 249 324 27 76 28 87 28 274 0 189 -1 197 -28 270 -16 41 -43 102 -62
135 -35 63 -141 172 -211 219 -67 44 -212 97 -324 117 -124 23 -372 32 -515
19z m417 -399 c175 -61 268 -191 268 -377 0 -220 -131 -358 -373 -390 -169
-22 -224 -15 -246 32 -17 37 -15 680 2 714 7 14 28 31 47 38 51 18 230 8 302
-17z"/>
<path d="M44888 17729 c-17 -9 -18 -76 -18 -1169 0 -1040 2 -1160 16 -1174 14
-14 97 -16 763 -16 611 0 751 2 766 13 16 12 18 31 20 157 1 127 -1 146 -17
162 -17 17 -48 18 -531 18 l-514 0 -21 23 c-22 23 -22 29 -22 323 0 164 0 309
0 322 0 12 9 31 20 42 19 19 33 20 423 20 307 0 407 3 420 13 14 10 16 34 17
147 1 74 1 140 1 147 -1 6 -8 19 -17 27 -13 14 -65 16 -418 16 l-403 0 -21 23
c-25 27 -26 37 -24 310 2 202 3 218 22 237 19 19 33 20 488 20 407 0 470 2
490 16 21 14 22 22 22 161 0 127 -2 147 -17 159 -15 11 -152 13 -723 13 -461
0 -711 -3 -722 -10z"/>
<path d="M48140 17213 c-166 -16 -277 -37 -361 -67 -194 -70 -324 -161 -433
-306 -63 -84 -101 -164 -135 -285 -29 -102 -31 -121 -31 -275 0 -142 3 -179
24 -260 41 -159 96 -272 178 -364 201 -226 523 -330 966 -312 219 9 444 48
473 82 13 16 12 18 -38 287 -9 52 -36 59 -143 35 -72 -15 -143 -22 -290 -25
-184 -5 -201 -3 -297 20 -64 16 -125 39 -165 62 -68 39 -148 111 -148 132 0 7
-4 13 -8 13 -15 0 -52 82 -72 160 -45 177 -12 389 79 509 74 98 185 165 326
198 59 13 120 18 230 18 132 0 164 -4 269 -29 118 -29 119 -29 135 -10 9 11
34 80 55 153 54 182 57 177 -107 218 -159 40 -375 60 -507 46z"/>
<path d="M50290 17213 c-142 -16 -297 -65 -389 -122 -68 -42 -87 -57 -156
-127 -177 -181 -273 -487 -246 -777 25 -259 102 -447 245 -595 180 -188 434
-274 724 -244 64 7 145 20 179 31 147 45 320 164 405 278 21 29 38 54 38 57 0
2 15 30 33 63 156 276 155 746 -2 1011 -17 29 -31 56 -31 60 0 10 -129 154
-159 177 -14 10 -28 22 -31 25 -14 15 -139 83 -196 106 -99 39 -314 69 -414
57z m186 -388 c118 -35 203 -124 256 -267 27 -74 31 -98 35 -231 7 -188 -4
-250 -67 -392 -28 -65 -117 -155 -180 -183 -81 -37 -213 -42 -295 -12 -107 40
-201 160 -241 309 -20 77 -29 279 -15 373 22 155 109 306 209 366 83 48 208
64 298 37z"/>
<path d="M52635 17210 c-241 -21 -406 -88 -521 -212 -91 -99 -124 -188 -124
-340 0 -138 27 -203 124 -301 75 -76 151 -122 266 -164 114 -42 364 -123 378
-123 23 0 162 -68 195 -96 43 -35 56 -61 57 -107 0 -57 -29 -90 -102 -118 -59
-22 -77 -24 -263 -24 -161 0 -214 4 -275 19 -83 20 -224 66 -284 91 -58 25
-82 10 -94 -57 -33 -176 -44 -266 -34 -284 11 -20 154 -75 292 -112 118 -32
284 -46 449 -39 186 9 257 19 378 58 181 57 283 135 342 259 35 74 35 77 36
205 0 128 -1 131 -33 195 -88 172 -231 258 -637 385 -226 71 -345 152 -345
236 0 63 94 131 206 149 162 27 435 -11 586 -80 64 -30 91 4 102 131 4 37 13
89 21 115 19 62 19 108 1 123 -24 20 -145 52 -266 71 -141 22 -335 30 -455 20z"/>
<path d="M57415 17214 c-186 -28 -254 -48 -359 -107 -27 -15 -50 -27 -53 -27
-8 0 -125 -101 -159 -137 -90 -99 -173 -259 -216 -422 -30 -117 -30 -401 2
-525 56 -223 164 -373 365 -509 127 -85 388 -147 619 -147 197 0 524 58 568
102 20 20 23 53 8 94 -6 15 -17 73 -24 130 -7 57 -19 111 -26 119 -17 20 -53
19 -125 -5 -184 -60 -428 -80 -560 -44 -33 9 -77 20 -97 25 -51 12 -146 70
-190 116 -43 45 -88 126 -88 159 0 31 33 61 77 69 20 3 283 5 585 4 418 -2
552 1 561 10 17 17 10 343 -9 414 -7 28 -14 62 -14 74 0 66 -91 261 -165 356
-54 68 -172 153 -258 185 -122 47 -347 80 -442 66z m227 -404 c72 -27 160
-105 195 -174 30 -57 37 -146 15 -168 -10 -10 -91 -13 -372 -13 -401 0 -395
-1 -393 68 2 74 100 210 187 261 102 60 252 70 368 26z"/>
<path d="M58944 17177 c-8 -4 -14 -16 -14 -26 0 -10 29 -103 64 -207 35 -104
70 -209 78 -234 21 -62 92 -259 128 -350 16 -41 45 -118 65 -170 38 -101 93
-233 130 -315 13 -27 40 -88 60 -135 76 -173 159 -335 179 -352 18 -15 45 -18
188 -18 96 0 177 4 190 11 26 11 67 89 233 444 26 55 60 127 75 160 16 33 48
107 73 165 25 58 52 121 60 140 62 140 144 360 248 670 61 182 66 204 48 216
-6 4 -102 7 -212 8 -165 1 -204 -2 -219 -14 -11 -9 -28 -49 -39 -95 -11 -44
-29 -100 -39 -125 -9 -25 -24 -67 -33 -95 -23 -75 -76 -226 -93 -262 -8 -17
-14 -36 -14 -42 0 -6 -12 -39 -26 -74 -14 -34 -36 -89 -49 -122 -13 -33 -37
-96 -55 -140 -18 -44 -43 -111 -57 -150 -13 -38 -35 -81 -49 -95 -23 -23 -26
-24 -51 -10 -21 12 -35 42 -78 165 -28 83 -72 209 -97 280 -53 152 -143 433
-189 590 -43 150 -58 185 -78 185 -177 5 -416 3 -427 -3z"/>
<path d="M13215 15205 c-60 -59 -1 -156 76 -125 52 22 61 103 16 135 -31 22
-65 18 -92 -10z"/>
<path d="M22206 15199 c-14 -17 -26 -38 -26 -47 0 -9 -3 -27 -6 -39 -6 -21 -3
-23 40 -23 40 0 46 3 46 20 0 35 30 36 91 2 67 -37 96 -40 132 -11 27 21 53
90 43 115 -3 8 -20 14 -40 14 -29 0 -37 -4 -42 -24 -9 -38 -31 -39 -89 -6 -70
40 -115 40 -149 -1z"/>
<path d="M12007 15213 c-4 -3 -7 -188 -7 -410 l0 -403 65 0 65 0 0 47 0 47 33
-32 c46 -44 101 -65 177 -65 189 0 309 161 269 362 -29 151 -153 244 -304 228
-63 -6 -100 -24 -143 -68 l-32 -33 0 167 0 167 -58 0 c-32 0 -62 -3 -65 -7z
m370 -344 c68 -25 106 -88 107 -174 0 -96 -49 -166 -131 -183 -122 -26 -216
54 -216 183 0 84 37 148 103 174 34 13 102 13 137 0z"/>
<path d="M14180 14810 l0 -410 65 0 65 0 -2 408 -3 407 -62 3 -63 3 0 -411z"/>
<path d="M18850 14810 l0 -410 65 0 65 0 0 81 c0 80 0 82 41 130 22 27 45 49
49 49 5 0 46 -58 91 -130 l83 -130 73 0 c40 0 73 2 73 5 0 2 -51 82 -114 178
l-113 173 105 112 104 112 -75 0 -75 0 -119 -126 -118 -126 -5 243 -5 244 -62
3 -63 3 0 -411z"/>
<path d="M29230 14805 l0 -405 60 0 60 0 0 405 0 405 -60 0 -60 0 0 -405z"/>
<path d="M29560 14805 l0 -405 65 0 65 0 0 405 0 405 -65 0 -65 0 0 -405z"/>
<path d="M3440 14785 l0 -385 65 0 65 0 0 385 0 385 -65 0 -65 0 0 -385z"/>
<path d="M10745 15157 c-114 -38 -208 -118 -253 -215 -24 -50 -27 -69 -27
-157 0 -93 2 -105 32 -166 77 -156 253 -248 425 -221 70 11 155 41 206 72 l32
20 0 145 0 145 -55 0 -55 0 0 -109 0 -109 -52 -23 c-78 -34 -185 -32 -254 3
-99 52 -147 131 -148 243 0 108 51 192 146 239 92 46 234 32 315 -30 19 -14
36 -24 38 -23 2 2 19 24 38 48 l35 44 -23 19 c-13 10 -54 33 -92 50 -60 29
-79 33 -168 35 -63 2 -115 -2 -140 -10z"/>
<path d="M14890 15165 c0 -4 63 -119 140 -258 l140 -253 0 -127 0 -127 65 0
65 0 0 126 0 126 140 254 c77 140 140 257 140 259 0 3 -29 5 -64 5 l-64 0
-108 -186 c-75 -130 -109 -182 -116 -172 -4 7 -54 91 -110 186 l-101 172 -63
0 c-35 0 -64 -2 -64 -5z"/>
<path d="M20840 15110 l0 -60 136 0 135 0 -3 -234 c-3 -232 -3 -235 -27 -260
-47 -50 -139 -43 -206 15 -19 17 -38 28 -42 26 -4 -3 -19 -26 -33 -51 l-24
-45 24 -26 c13 -14 48 -37 78 -52 71 -35 176 -37 238 -5 52 27 100 81 113 129
7 23 11 157 11 331 l0 292 -200 0 -200 0 0 -60z"/>
<path d="M23950 14785 l0 -385 230 0 230 0 0 60 0 60 -165 0 -165 0 0 325 0
325 -65 0 -65 0 0 -385z"/>
<path d="M27550 14785 l0 -385 60 0 60 0 1 283 0 282 119 -242 119 -243 44 0
44 0 119 243 119 242 3 -282 2 -283 60 0 60 0 0 385 0 385 -78 0 -79 0 -124
-256 -123 -255 -128 255 -128 256 -75 0 -75 0 0 -385z"/>
<path d="M31300 14785 l0 -385 235 0 236 0 -3 58 -3 57 -167 3 -168 2 0 325 0
325 -65 0 -65 0 0 -385z"/>
<path d="M4530 15040 l0 -80 -40 0 -40 0 0 -45 0 -45 40 0 40 0 0 -172 c0
-149 3 -179 20 -215 34 -76 118 -107 212 -79 81 24 83 26 66 77 -16 47 -15 47
-94 34 -67 -12 -74 7 -74 197 l0 158 85 0 85 0 0 45 0 45 -85 0 -85 0 0 80 0
80 -65 0 -65 0 0 -80z"/>
<path d="M8190 15040 l0 -80 -40 0 -40 0 0 -45 0 -45 40 0 40 0 0 -177 c0
-150 3 -184 18 -213 36 -72 123 -103 214 -76 80 24 81 25 62 80 -14 41 -19 47
-38 41 -56 -17 -93 -17 -109 0 -15 14 -17 40 -17 181 l0 164 85 0 85 0 0 45 0
45 -85 0 -85 0 0 80 0 80 -65 0 -65 0 0 -80z"/>
<path d="M3777 14983 c-4 -3 -7 -136 -7 -295 l0 -288 65 0 65 0 0 158 c0 86 5
174 10 194 14 51 58 94 110 108 57 15 103 6 143 -30 l32 -28 3 -201 3 -201 65
0 64 0 0 218 c0 206 -1 220 -22 262 -32 63 -90 100 -165 107 -87 8 -161 -16
-207 -67 l-36 -40 0 55 0 55 -58 0 c-32 0 -62 -3 -65 -7z"/>
<path d="M5112 14976 c-100 -33 -172 -113 -193 -214 -13 -62 -6 -146 15 -197
23 -53 91 -120 149 -146 65 -28 190 -31 252 -5 51 22 115 66 115 79 0 6 -14
26 -32 44 l-31 32 -29 -24 c-38 -33 -102 -48 -163 -41 -56 6 -89 27 -122 76
-42 61 -45 60 191 60 l214 0 6 25 c8 33 -11 149 -31 189 -22 45 -62 85 -107
108 -51 26 -174 33 -234 14z m154 -101 c46 -9 104 -79 104 -126 0 -5 -69 -9
-165 -9 -91 0 -165 2 -165 5 0 19 32 74 56 97 29 27 94 49 124 43 8 -2 29 -6
46 -10z"/>
<path d="M5731 14973 c-59 -21 -124 -87 -144 -148 -21 -61 -22 -167 -2 -226
36 -104 128 -169 243 -169 71 0 124 18 166 58 l28 27 -4 -67 c-4 -61 -7 -71
-38 -103 -61 -63 -175 -71 -273 -20 -55 28 -61 26 -88 -38 -10 -24 -9 -30 7
-42 33 -26 121 -54 186 -61 127 -13 244 38 303 131 l30 48 3 314 3 314 -63 -3
-63 -3 -3 -37 -3 -38 -37 29 c-68 53 -162 65 -251 34z m216 -114 c52 -32 76
-89 71 -166 -7 -105 -61 -158 -163 -158 -76 0 -109 19 -143 86 -29 55 -27 144
5 187 54 73 157 96 230 51z"/>
<path d="M6337 14983 c-4 -3 -7 -136 -7 -295 l0 -288 64 0 64 0 4 173 c3 168
4 175 30 214 29 44 72 69 136 79 l42 7 0 58 c0 54 -2 59 -21 59 -48 0 -106
-26 -146 -67 l-43 -42 0 54 0 55 -58 0 c-32 0 -62 -3 -65 -7z"/>
<path d="M6907 14979 c-46 -11 -137 -56 -137 -69 0 -9 40 -80 45 -80 2 0 27
11 57 25 68 32 158 34 205 5 31 -18 60 -81 47 -102 -3 -4 -56 -8 -117 -8 -128
0 -174 -10 -217 -47 -42 -35 -60 -74 -60 -129 0 -92 69 -164 171 -179 61 -9
148 10 190 41 l34 25 3 -30 c3 -31 4 -31 63 -31 l59 0 0 218 c0 206 -1 220
-22 262 -25 49 -70 84 -127 100 -43 12 -141 11 -194 -1z m220 -336 c3 -9 0
-34 -8 -57 -19 -54 -73 -86 -147 -86 -92 0 -139 43 -116 109 13 36 60 50 172
50 77 1 94 -2 99 -16z"/>
<path d="M7430 14695 l0 -295 65 0 65 0 0 173 c0 159 2 175 23 212 24 44 92
85 139 85 46 0 96 -26 118 -62 18 -30 20 -50 20 -220 l0 -188 65 0 65 0 0 213
c0 213 0 214 -27 268 -23 45 -37 59 -83 82 -49 25 -63 28 -126 24 -79 -4 -152
-38 -176 -80 -12 -20 -13 -18 -18 28 l-5 50 -62 3 -63 3 0 -296z"/>
<path d="M8762 14971 c-109 -38 -180 -130 -189 -245 -16 -196 105 -330 298
-329 80 0 153 23 202 64 l37 30 -28 35 c-15 19 -30 34 -35 34 -4 0 -25 -12
-47 -26 -28 -19 -57 -28 -102 -31 -83 -6 -141 23 -175 88 l-24 44 221 3 220 2
0 63 c0 92 -23 160 -73 211 -70 73 -193 96 -305 57z m192 -109 c35 -20 62 -57
70 -94 l6 -28 -165 0 c-107 0 -165 4 -165 10 0 23 42 91 65 106 55 36 132 38
189 6z"/>
<path d="M9355 14974 c-72 -27 -115 -83 -115 -154 0 -85 43 -129 165 -170 48
-16 99 -37 112 -45 29 -19 31 -65 3 -90 -30 -27 -141 -18 -209 18 -29 15 -55
27 -57 27 -2 0 -13 -19 -25 -42 l-21 -41 23 -19 c47 -36 131 -60 210 -61 63
-1 86 4 131 26 86 42 120 126 84 210 -21 51 -69 84 -162 113 -102 31 -140 59
-131 97 13 51 106 58 205 16 25 -11 46 -18 47 -17 1 2 12 22 24 45 l21 42 -24
17 c-66 43 -203 57 -281 28z"/>
<path d="M11477 14979 c-46 -11 -137 -56 -137 -69 0 -9 40 -80 45 -80 2 0 27
11 57 25 57 26 144 34 192 15 29 -11 51 -42 61 -87 l7 -33 -119 0 c-134 0
-179 -10 -224 -47 -95 -80 -72 -227 46 -291 46 -25 169 -21 222 6 23 12 44 26
48 32 12 20 25 10 25 -20 l0 -30 60 0 60 0 0 218 c0 206 -1 220 -22 262 -25
49 -70 84 -127 100 -43 12 -141 11 -194 -1z m223 -344 c0 -80 -65 -135 -160
-135 -91 0 -136 44 -114 109 13 36 60 50 177 50 l97 1 0 -25z"/>
<path d="M12760 14695 l0 -295 65 0 65 0 0 173 c0 156 2 175 21 206 31 51 58
69 122 83 l57 12 0 59 0 60 -41 -7 c-56 -9 -115 -41 -136 -73 l-18 -27 -5 49
-5 50 -62 3 -63 3 0 -296z"/>
<path d="M13207 14984 c-4 -4 -7 -137 -7 -296 l0 -288 65 0 65 0 -2 293 -3
292 -55 3 c-31 2 -59 0 -63 -4z"/>
<path d="M13685 14981 c-59 -17 -86 -31 -129 -71 -61 -57 -88 -122 -88 -220 0
-126 52 -214 157 -266 46 -22 68 -26 141 -26 79 0 93 3 152 34 87 44 96 59 56
98 l-30 31 -58 -31 c-99 -52 -210 -31 -263 49 -41 61 -45 60 195 63 l217 3 -1
67 c-4 171 -89 265 -247 273 -40 3 -85 0 -102 -4z m168 -118 c32 -16 67 -68
67 -100 0 -23 -1 -23 -165 -23 l-165 0 15 38 c41 97 150 135 248 85z"/>
<path d="M15830 14983 c-14 -2 -55 -18 -92 -35 -67 -30 -67 -31 -53 -57 28
-53 42 -66 57 -53 27 22 103 43 155 43 86 1 133 -35 133 -100 l0 -31 -112 0
c-138 0 -179 -11 -232 -60 -41 -38 -41 -39 -41 -112 0 -60 4 -79 23 -106 62
-86 226 -105 326 -37 l36 24 0 -29 0 -30 66 0 65 0 -3 228 -3 229 -27 40 c-38
57 -101 86 -197 89 -42 1 -87 0 -101 -3z m200 -366 c0 -34 -6 -49 -27 -69 -43
-39 -67 -48 -133 -48 -52 0 -65 4 -86 25 -20 20 -25 34 -22 63 4 55 45 72 171
72 l97 0 0 -43z"/>
<path d="M16603 14981 c-42 -11 -82 -36 -110 -70 l-23 -26 0 48 0 47 -65 0
-65 0 0 -290 0 -290 64 0 65 0 3 184 c3 168 5 187 24 212 49 67 130 91 196 60
63 -30 68 -51 68 -265 l0 -191 64 0 64 0 4 173 c3 151 6 177 24 212 54 103
208 112 256 15 15 -29 18 -64 18 -217 l0 -183 65 0 65 0 0 190 c0 235 -9 281
-64 336 -98 98 -285 79 -355 -37 l-17 -29 -31 43 c-16 24 -47 51 -68 61 -43
21 -135 29 -182 17z"/>
<path d="M17640 14983 c-14 -2 -55 -18 -92 -35 -67 -30 -67 -31 -53 -57 28
-53 42 -66 57 -53 27 22 103 43 155 43 86 1 133 -35 133 -100 l0 -31 -112 0
c-62 0 -130 -5 -150 -10 -44 -13 -93 -52 -113 -91 -20 -38 -19 -113 2 -156 21
-44 88 -89 148 -98 59 -8 145 10 189 40 l36 24 0 -29 0 -30 66 0 65 0 -3 228
-3 229 -27 40 c-38 57 -101 86 -197 89 -42 1 -87 0 -101 -3z m200 -366 c0 -34
-6 -49 -27 -69 -43 -39 -67 -48 -133 -48 -52 0 -65 4 -86 25 -20 20 -25 34
-22 63 4 55 45 72 171 72 l97 0 0 -43z"/>
<path d="M18292 14973 c-66 -20 -142 -86 -172 -150 -36 -74 -34 -189 3 -265
53 -108 145 -160 283 -160 120 1 215 56 266 156 29 57 36 176 14 243 -49 147
-228 227 -394 176z m188 -115 c61 -31 92 -88 92 -167 0 -105 -54 -173 -148
-187 -140 -21 -246 127 -189 263 21 50 42 72 90 94 54 25 102 24 155 -3z"/>
<path d="M19650 14983 c-14 -2 -55 -18 -92 -35 -67 -30 -67 -31 -53 -57 33
-63 35 -63 93 -35 90 43 212 30 242 -25 5 -11 10 -33 10 -50 l0 -31 -112 0
c-129 0 -174 -10 -218 -47 -42 -35 -60 -74 -60 -130 0 -65 27 -112 84 -147 40
-25 57 -29 119 -29 71 0 155 25 171 52 13 21 26 11 26 -19 l0 -30 60 0 60 0 0
206 c0 232 -7 270 -57 320 -52 52 -165 76 -273 57z m200 -365 c-1 -49 -12 -67
-60 -97 -26 -15 -51 -21 -98 -21 -54 0 -67 4 -88 25 -20 20 -25 34 -22 63 4
55 45 72 171 72 l97 0 0 -42z"/>
<path d="M21572 14973 c-66 -20 -142 -86 -172 -150 -36 -74 -34 -189 3 -265
54 -110 140 -158 281 -158 174 0 284 101 294 271 8 134 -44 231 -152 284 -70
34 -177 42 -254 18z m184 -112 c130 -59 133 -273 4 -338 -52 -27 -96 -29 -147
-8 -50 21 -72 42 -94 90 -32 69 -19 164 29 219 24 27 91 56 132 56 19 0 53 -9
76 -19z"/>
<path d="M22270 14983 c-14 -2 -55 -18 -92 -35 -67 -30 -67 -31 -53 -57 33
-63 34 -63 94 -35 90 43 211 31 241 -25 5 -11 10 -33 10 -50 l0 -31 -112 0
c-129 0 -174 -10 -218 -47 -42 -35 -60 -73 -60 -128 0 -65 30 -118 86 -151 39
-23 58 -27 118 -27 70 0 154 25 170 52 13 21 26 11 26 -19 l0 -30 60 0 60 0 0
206 c0 232 -7 270 -57 320 -52 52 -165 76 -273 57z m200 -365 c-1 -49 -12 -67
-60 -97 -49 -29 -146 -30 -184 0 -23 18 -27 28 -24 63 4 59 41 76 171 76 l97
0 0 -42z"/>
<path d="M22935 14977 c-65 -22 -99 -43 -138 -86 -53 -59 -69 -103 -71 -196
-1 -69 3 -88 27 -137 54 -110 140 -158 281 -158 174 0 284 101 294 271 8 134
-44 231 -152 284 -66 32 -179 42 -241 22z m171 -116 c50 -23 80 -63 94 -125
12 -56 -1 -125 -32 -169 -25 -35 -89 -66 -136 -67 -37 0 -97 23 -126 48 -51
45 -70 149 -41 219 21 50 42 72 90 94 51 24 99 24 151 0z"/>
<path d="M25425 14981 c-97 -25 -175 -100 -202 -190 -23 -81 -14 -183 23 -250
57 -106 140 -146 283 -139 94 5 144 24 194 74 l28 28 -35 35 c-33 32 -37 34
-53 19 -36 -32 -84 -48 -140 -49 -70 -1 -99 10 -134 47 -41 44 -49 67 -49 134
0 75 27 130 80 163 62 39 179 25 241 -29 14 -12 20 -9 48 27 l33 40 -22 24
c-50 53 -209 89 -295 66z"/>
<path d="M26030 14980 c-36 -9 -115 -42 -138 -58 -11 -8 -9 -17 12 -50 l26
-41 55 25 c62 29 145 35 195 14 34 -14 60 -55 60 -94 l0 -24 -132 -4 c-119 -3
-137 -6 -176 -28 -58 -33 -85 -78 -85 -144 0 -77 30 -125 98 -158 73 -36 188
-28 257 17 l38 25 0 -30 0 -30 66 0 66 0 -4 223 c-3 239 -4 244 -61 305 -51
54 -173 76 -277 52z m210 -359 c0 -74 -63 -121 -164 -121 -43 0 -61 5 -82 23
-47 41 -29 119 30 130 11 2 65 5 119 6 l97 1 0 -39z"/>
<path d="M26628 14976 c-86 -32 -120 -76 -120 -157 0 -56 24 -103 67 -128 17
-10 66 -30 111 -45 90 -30 124 -55 124 -91 0 -64 -121 -77 -226 -25 -34 16
-64 30 -66 30 -3 0 -13 -19 -24 -41 -18 -41 -18 -41 4 -60 50 -39 132 -61 222
-57 144 5 210 58 210 167 0 94 -38 133 -175 177 -104 33 -125 47 -125 83 0 71
92 78 232 17 13 -6 22 2 37 33 12 22 21 44 21 49 0 5 -23 20 -52 32 -65 28
-187 36 -240 16z"/>
<path d="M28727 14979 c-82 -19 -146 -68 -185 -143 -24 -45 -27 -62 -27 -146
0 -87 3 -100 30 -149 34 -62 98 -114 162 -132 69 -19 198 -7 258 23 28 14 58
34 67 45 17 19 16 21 -16 52 l-34 33 -42 -28 c-58 -39 -149 -45 -208 -15 -40
20 -92 82 -92 108 0 10 52 13 218 15 l217 3 -1 77 c-2 139 -70 233 -185 257
-58 13 -108 13 -162 0z m164 -114 c33 -17 56 -48 69 -94 l9 -31 -165 0 c-179
0 -180 0 -150 58 42 81 150 112 237 67z"/>
<path d="M30057 14980 c-98 -25 -183 -102 -208 -187 -48 -165 28 -331 174
-379 69 -23 206 -16 263 14 96 49 145 128 152 243 8 134 -44 231 -152 284 -60
29 -166 41 -229 25z m159 -119 c50 -23 80 -63 94 -125 12 -56 -1 -125 -32
-169 -25 -35 -89 -66 -136 -67 -37 0 -97 23 -126 48 -30 27 -56 93 -56 142 0
140 131 228 256 171z"/>
<path d="M32013 14975 c-56 -15 -133 -51 -133 -62 0 -4 34 -64 46 -81 1 -2 20
6 42 17 128 65 253 37 268 -61 l6 -36 -133 -3 c-112 -3 -141 -7 -174 -25 -128
-67 -121 -246 12 -309 73 -35 199 -20 271 31 21 16 22 16 22 -15 l0 -31 64 0
65 0 -5 198 c-3 108 -6 214 -8 235 -5 48 -46 101 -98 128 -54 28 -173 35 -245
14z m224 -361 c-8 -74 -62 -115 -157 -116 -81 -1 -131 46 -116 107 10 40 55
54 175 55 l104 0 -6 -46z"/>
<path d="M33535 14981 c-45 -11 -69 -26 -104 -66 l-31 -36 0 51 0 50 -65 0
-65 0 0 -290 0 -290 64 0 65 0 3 179 c3 164 5 182 24 208 31 41 80 71 130 79
l44 6 0 59 c0 64 -1 65 -65 50z"/>
<path d="M33855 14980 c-39 -8 -116 -39 -143 -58 -11 -8 -9 -17 12 -50 l26
-41 56 26 c128 58 254 18 254 -81 l0 -24 -132 -4 c-119 -3 -137 -6 -176 -28
-59 -33 -83 -76 -83 -144 0 -79 27 -124 96 -158 71 -35 190 -27 257 17 l38 25
0 -30 0 -30 66 0 66 0 -4 223 c-3 248 -6 259 -75 316 -55 46 -155 61 -258 41z
m205 -359 c0 -72 -62 -121 -155 -122 -85 -1 -138 46 -116 104 18 47 39 54 174
56 l97 1 0 -39z"/>
<path d="M24520 14778 c0 -112 5 -220 11 -241 13 -47 63 -106 106 -123 18 -8
63 -14 100 -14 80 0 137 23 176 69 l27 33 0 -51 0 -51 65 0 65 0 0 290 0 290
-65 0 -65 0 0 -168 c0 -157 -2 -172 -23 -213 -30 -56 -72 -81 -137 -81 -60 1
-85 13 -110 55 -18 29 -20 51 -20 220 l0 187 -65 0 -65 0 0 -202z"/>
<path d="M32522 14768 c3 -200 5 -216 27 -261 34 -69 85 -100 171 -105 86 -5
132 10 187 61 l43 40 0 -52 0 -51 60 0 60 0 0 290 0 290 -59 0 -59 0 -4 -172
c-4 -184 -10 -209 -60 -255 -49 -45 -143 -48 -190 -6 -41 36 -48 73 -48 258
l0 175 -66 0 -66 0 4 -212z"/>
<path d="M9781 14834 c-24 -30 -25 -42 -11 -78 9 -25 49 -43 80 -37 29 6 50
34 50 68 0 68 -78 99 -119 47z"/>
<path d="M9803 14530 c-24 -10 -43 -39 -43 -68 0 -33 38 -72 71 -72 66 0 95
88 43 129 -29 23 -38 24 -71 11z"/>
<path d="M20136 14508 c-20 -28 -21 -72 -2 -87 13 -11 12 -19 -5 -58 -10 -24
-19 -47 -19 -49 0 -2 15 -4 33 -4 28 0 36 7 70 58 42 66 49 118 19 145 -27 25
-78 22 -96 -5z"/>
<path d="M30560 14510 c-24 -24 -26 -57 -5 -88 12 -16 13 -27 5 -41 -5 -11
-14 -31 -20 -45 -9 -25 -8 -26 23 -26 28 0 36 7 68 58 20 31 40 67 44 79 6 22
-9 62 -29 75 -21 14 -66 8 -86 -12z"/>
<path d="M15815 13505 c-60 -59 -1 -156 76 -125 52 22 61 103 16 135 -31 22
-65 18 -92 -10z"/>
<path d="M20595 13505 c-49 -48 -20 -128 45 -128 46 0 84 44 76 87 -12 63 -77
86 -121 41z"/>
<path d="M25373 13515 c-46 -32 -36 -115 16 -133 33 -12 84 7 95 33 12 33 6
66 -19 90 -27 28 -61 32 -92 10z"/>
<path d="M24700 13110 l0 -410 60 0 60 0 0 80 0 81 46 49 c26 28 50 50 53 50
4 0 44 -58 90 -130 l82 -130 75 0 c58 0 73 3 68 13 -4 6 -53 82 -109 167 -55
85 -104 160 -108 167 -4 7 35 55 99 122 l106 111 -73 0 -74 0 -127 -127 -128
-128 0 248 0 247 -60 0 -60 0 0 -410z"/>
<path d="M3677 13463 c-5 -7 -291 -654 -323 -730 l-14 -33 69 0 69 0 35 83 36
82 194 3 194 2 35 -82 35 -83 72 -3 c40 -2 71 1 69 5 -3 4 -79 178 -169 385
l-164 378 -67 0 c-37 0 -69 -3 -71 -7z m137 -307 c37 -87 65 -160 63 -162 -2
-3 -65 -3 -139 -2 l-135 3 63 148 c34 81 65 155 68 164 4 9 8 14 10 12 2 -2
34 -75 70 -163z"/>
<path d="M8640 13085 l0 -385 60 0 60 0 1 283 1 282 119 -242 120 -243 44 0
45 0 119 243 119 242 1 -282 1 -283 60 0 60 0 0 385 0 385 -75 0 -75 0 -128
-256 -128 -256 -124 256 -125 256 -77 0 -78 0 0 -385z"/>
<path d="M12970 13085 l0 -385 65 0 65 0 0 155 0 155 175 0 175 0 0 60 0 60
-175 0 -175 0 0 110 0 110 195 0 195 0 0 60 0 60 -260 0 -260 0 0 -385z"/>
<path d="M18470 13085 l0 -385 60 0 60 0 1 283 0 282 120 -240 120 -240 45 0
44 0 119 240 119 240 1 -282 1 -283 60 0 60 0 0 385 0 385 -75 0 -75 0 -127
-255 -128 -255 -127 255 -128 255 -75 0 -75 0 0 -385z"/>
<path d="M23250 13085 l0 -385 65 0 65 0 0 103 1 102 63 67 63 67 124 -169
124 -169 78 -1 c71 0 77 1 68 18 -5 9 -75 107 -155 217 -80 110 -144 203 -143
207 1 3 61 71 132 149 179 196 171 179 82 179 l-75 0 -178 -194 -179 -195 -3
195 -2 194 -65 0 -65 0 0 -385z"/>
<path d="M5010 13340 l0 -80 -40 0 -40 0 0 -45 0 -45 40 0 40 0 0 -172 c0
-149 3 -179 20 -215 34 -76 118 -107 212 -79 81 24 83 26 66 77 -16 47 -15 47
-94 34 -67 -12 -74 7 -74 197 l0 158 85 0 85 0 0 45 0 45 -85 0 -85 0 0 80 0
80 -65 0 -65 0 0 -80z"/>
<path d="M10330 13340 l0 -80 -40 0 -40 0 0 -45 0 -45 39 0 40 0 3 -189 c3
-174 5 -192 24 -218 50 -66 142 -86 237 -49 26 10 47 19 47 20 0 1 -7 24 -16
50 -14 41 -19 47 -38 41 -56 -17 -93 -17 -109 0 -15 14 -17 40 -17 181 l0 164
85 0 85 0 0 45 0 45 -85 0 -85 0 0 80 0 80 -65 0 -65 0 0 -80z"/>
<path d="M27550 13340 l0 -80 -40 0 -40 0 0 -45 0 -45 39 0 40 0 3 -189 c3
-174 5 -192 24 -218 49 -66 135 -84 228 -49 51 19 51 21 34 78 -10 33 -15 38
-32 33 -52 -15 -92 -16 -111 -2 -19 14 -20 27 -20 179 l0 163 88 3 87 3 0 44
0 44 -87 3 -88 3 -3 78 -3 77 -59 0 -60 0 0 -80z"/>
<path d="M4257 13283 c-4 -3 -7 -136 -7 -295 l0 -288 65 0 65 0 0 158 c0 86 5
174 10 194 14 51 58 94 110 108 57 15 103 6 143 -30 l32 -28 3 -201 3 -201 65
0 64 0 0 218 c0 206 -1 220 -22 262 -32 63 -90 100 -165 107 -87 8 -161 -16
-207 -67 l-36 -40 0 55 0 55 -58 0 c-32 0 -62 -3 -65 -7z"/>
<path d="M5430 13067 c0 -215 1 -226 23 -268 15 -29 40 -54 71 -74 41 -25 58
-29 115 -28 80 0 132 21 177 69 l34 35 0 -50 0 -51 65 0 65 0 -2 293 -3 292
-62 3 -63 3 0 -158 c0 -180 -8 -220 -54 -271 -31 -33 -39 -36 -98 -40 -61 -4
-67 -2 -99 26 l-34 30 -5 204 -5 203 -62 3 -63 3 0 -224z"/>
<path d="M6177 13283 c-4 -3 -7 -136 -7 -295 l0 -288 65 0 65 0 0 158 c0 86 5
174 10 194 32 113 176 154 257 73 l33 -33 0 -196 0 -196 65 0 65 0 0 218 c0
210 -1 221 -23 263 -34 63 -90 99 -164 106 -87 8 -161 -16 -207 -67 l-36 -40
0 55 0 55 -58 0 c-32 0 -62 -3 -65 -7z"/>
<path d="M7049 13274 c-64 -19 -141 -90 -169 -156 -48 -112 -23 -262 58 -341
59 -57 123 -81 219 -80 72 0 91 4 146 31 35 17 71 40 80 50 16 17 15 20 -16
50 l-34 33 -57 -31 c-99 -52 -210 -31 -263 49 -41 61 -45 60 195 63 l217 3 -1
65 c-2 178 -103 281 -273 279 -31 0 -77 -7 -102 -15z m192 -110 c31 -16 57
-53 66 -94 l6 -30 -167 0 -166 0 15 37 c9 21 23 46 33 56 48 53 142 67 213 31z"/>
<path d="M7648 13276 c-86 -32 -122 -78 -122 -156 0 -90 51 -138 190 -179 74
-22 114 -53 114 -89 0 -67 -159 -71 -254 -7 l-36 24 -21 -40 c-11 -23 -18 -47
-15 -55 8 -21 97 -62 164 -74 115 -20 230 19 268 92 22 41 21 115 0 157 -21
39 -60 64 -146 92 -110 37 -140 55 -140 88 0 16 7 35 16 42 25 21 121 16 178
-9 27 -12 50 -22 52 -22 5 0 44 78 44 89 0 5 -21 19 -47 31 -61 28 -190 37
-245 16z"/>
<path d="M9787 13280 c-21 -6 -63 -21 -92 -36 -54 -25 -55 -26 -41 -52 35 -65
37 -66 87 -41 58 31 163 38 207 15 37 -19 52 -44 52 -85 l0 -31 -122 0 c-138
0 -180 -13 -233 -69 -28 -30 -30 -38 -30 -104 0 -59 4 -78 23 -105 62 -86 226
-105 326 -37 l36 24 0 -29 0 -30 66 0 65 0 -3 228 c-3 218 -4 229 -26 265 -38
60 -97 89 -195 93 -45 2 -99 -1 -120 -6z m213 -359 c0 -74 -63 -121 -165 -121
-69 0 -105 29 -105 83 0 59 38 75 178 76 l92 1 0 -39z"/>
<path d="M10902 13271 c-72 -25 -122 -67 -156 -135 -52 -100 -46 -228 15 -319
52 -79 137 -120 249 -120 82 0 157 24 204 66 l36 32 -31 34 c-26 28 -35 32
-48 23 -45 -32 -81 -45 -136 -49 -80 -6 -139 23 -172 88 l-24 44 221 3 220 2
0 63 c0 92 -23 160 -73 211 -70 73 -193 96 -305 57z m154 -92 c45 -12 104 -65
104 -94 0 -7 3 -20 6 -29 5 -14 -13 -16 -160 -16 -108 0 -166 4 -166 10 0 23
42 91 65 106 22 14 66 29 98 33 5 1 28 -4 53 -10z"/>
<path d="M11407 13284 c-11 -12 -8 -391 4 -438 23 -93 99 -149 203 -148 76 0
137 24 176 68 l30 35 0 -51 0 -50 65 0 65 0 0 295 0 296 -62 -3 -63 -3 -5
-180 c-6 -200 -14 -229 -73 -265 -36 -23 -112 -27 -151 -8 -55 24 -61 47 -66
258 l-5 195 -55 3 c-31 2 -59 0 -63 -4z"/>
<path d="M12228 13276 c-86 -31 -122 -78 -122 -156 0 -90 50 -137 189 -178 39
-12 80 -31 93 -42 30 -28 28 -65 -3 -86 -38 -25 -149 -15 -210 20 -26 14 -51
26 -55 26 -12 0 -43 -77 -35 -89 13 -22 104 -60 164 -70 118 -19 230 19 267
91 23 44 21 119 -4 160 -25 40 -71 67 -167 98 -98 32 -117 46 -113 84 4 42 38
59 103 51 28 -4 70 -15 94 -26 24 -10 45 -19 47 -19 5 0 44 78 44 88 0 5 -24
20 -52 32 -66 29 -186 37 -240 16z"/>
<path d="M13742 13271 c-72 -25 -122 -67 -155 -133 -52 -101 -46 -230 14 -321
53 -80 137 -120 250 -119 85 0 156 23 203 65 l36 32 -31 34 c-26 28 -35 32
-48 23 -45 -32 -81 -45 -136 -49 -80 -6 -139 23 -172 88 l-24 44 221 3 220 2
0 63 c0 92 -23 160 -73 211 -70 73 -193 96 -305 57z m153 -92 c22 -6 51 -21
64 -32 22 -21 51 -75 51 -97 0 -6 -58 -10 -165 -10 -108 0 -165 4 -165 10 0
23 42 91 65 106 22 15 69 30 100 33 6 0 28 -4 50 -10z"/>
<path d="M14267 13284 c-4 -4 -7 -137 -7 -296 l0 -288 64 0 65 0 3 179 c3 164
5 182 24 208 31 41 80 71 130 79 l44 6 0 60 0 61 -41 -7 c-55 -9 -90 -28 -127
-70 l-31 -36 -3 53 -3 52 -55 3 c-31 2 -59 0 -63 -4z"/>
<path d="M14707 13284 c-4 -4 -7 -137 -7 -296 l0 -288 65 0 65 0 0 163 c0 149
2 167 23 207 27 54 71 85 132 94 l45 7 0 61 0 61 -41 -7 c-55 -9 -90 -28 -127
-70 l-31 -36 -3 53 -3 52 -55 3 c-31 2 -59 0 -63 -4z"/>
<path d="M15282 13271 c-110 -38 -179 -131 -189 -253 -9 -113 31 -207 114
-268 52 -38 102 -52 183 -52 86 0 156 23 204 65 l36 32 -31 34 c-26 28 -34 32
-48 22 -108 -78 -250 -63 -306 33 -14 24 -25 46 -25 49 0 4 99 7 220 7 l220 0
0 64 c0 137 -64 239 -169 270 -71 21 -143 20 -209 -3z m153 -92 c22 -6 51 -21
64 -32 22 -21 51 -75 51 -97 0 -6 -58 -10 -165 -10 -108 0 -165 4 -165 10 0
23 42 91 65 106 22 15 69 30 100 33 6 0 28 -4 50 -10z"/>
<path d="M16363 13274 c-23 -9 -58 -33 -77 -55 l-36 -39 0 50 0 50 -65 0 -65
0 0 -290 0 -290 65 0 65 0 0 163 c0 149 2 167 23 207 27 54 71 85 132 94 l45
7 0 60 c0 55 -2 59 -22 58 -13 0 -42 -7 -65 -15z"/>
<path d="M16710 13283 c-14 -2 -55 -18 -92 -35 -67 -30 -67 -31 -53 -57 28
-53 42 -66 57 -53 27 22 103 43 155 43 86 1 133 -35 133 -100 l0 -31 -112 0
c-138 0 -179 -11 -232 -60 -41 -38 -41 -39 -41 -112 0 -60 4 -79 23 -106 62
-86 226 -105 326 -37 l36 24 0 -29 0 -30 66 0 65 0 -3 228 -3 229 -27 40 c-38
57 -101 86 -197 89 -42 1 -87 0 -101 -3z m200 -366 c0 -34 -6 -49 -27 -69 -43
-39 -67 -48 -133 -48 -52 0 -65 4 -86 25 -20 20 -25 34 -22 63 4 55 45 72 171
72 l97 0 0 -43z"/>
<path d="M17675 13281 c-85 -22 -159 -84 -194 -161 -23 -51 -28 -168 -11 -232
15 -52 67 -117 120 -150 86 -53 239 -53 333 0 72 41 79 55 41 92 l-30 31 -60
-31 c-51 -28 -67 -31 -120 -28 -48 3 -70 10 -98 31 -34 26 -66 73 -66 96 0 7
77 12 218 13 l217 3 -1 67 c-4 171 -89 265 -247 273 -40 3 -85 1 -102 -4z
m166 -117 c34 -17 69 -69 69 -101 0 -23 -1 -23 -165 -23 l-165 0 15 38 c42 99
149 137 246 86z"/>
<path d="M19630 13283 c-14 -2 -55 -18 -92 -35 -67 -30 -67 -31 -53 -57 33
-63 35 -63 93 -35 90 43 212 30 242 -25 5 -11 10 -33 10 -50 l0 -31 -112 0
c-129 0 -174 -10 -218 -47 -42 -35 -60 -74 -60 -130 0 -65 27 -112 84 -147 40
-25 57 -29 119 -29 71 0 155 25 171 52 13 21 26 11 26 -19 l0 -30 60 0 60 0 0
206 c0 232 -7 270 -57 320 -52 52 -165 76 -273 57z m200 -366 c0 -34 -6 -49
-27 -69 -43 -39 -67 -48 -133 -48 -52 0 -65 4 -86 25 -20 20 -25 34 -22 63 4
55 45 72 171 72 l97 0 0 -43z"/>
<path d="M20387 13276 c-43 -16 -63 -30 -94 -65 l-23 -26 0 48 0 47 -65 0 -65
0 0 -290 0 -290 65 0 65 0 0 170 c0 149 2 176 19 209 25 48 57 69 127 84 l54
11 0 58 c0 54 -2 58 -22 58 -13 -1 -40 -7 -61 -14z"/>
<path d="M21040 13280 c-36 -9 -115 -42 -138 -58 -11 -8 -9 -17 12 -50 l26
-41 55 25 c62 29 145 35 195 14 34 -14 60 -55 60 -94 l0 -24 -132 -4 c-153 -4
-199 -21 -238 -84 -40 -63 -27 -169 26 -215 76 -67 217 -73 306 -14 l38 25 0
-30 0 -30 66 0 66 0 -4 223 c-3 239 -4 244 -61 305 -51 54 -173 76 -277 52z
m210 -359 c0 -74 -63 -121 -164 -121 -43 0 -61 5 -82 23 -47 41 -29 119 30
130 11 2 65 5 119 6 l97 1 0 -39z"/>
<path d="M21825 13281 c-49 -12 -92 -38 -119 -73 l-26 -33 0 53 0 52 -60 0
-60 0 0 -290 0 -290 60 0 60 0 0 151 c0 82 5 169 11 193 34 138 225 173 280
52 16 -35 19 -67 19 -218 l0 -178 66 0 66 0 -4 213 c-3 187 -6 217 -24 257
-44 97 -148 140 -269 111z"/>
<path d="M22430 13280 c-36 -9 -115 -42 -138 -58 -11 -8 -9 -17 12 -50 l26
-41 55 25 c62 29 145 35 195 14 34 -14 60 -55 60 -94 l0 -24 -132 -4 c-119 -3
-137 -6 -176 -28 -58 -33 -85 -78 -85 -144 0 -77 30 -124 98 -159 73 -36 187
-28 257 18 l38 25 0 -30 0 -30 66 0 66 0 -4 223 c-3 239 -4 244 -61 305 -51
54 -173 76 -277 52z m210 -359 c0 -74 -63 -121 -164 -121 -43 0 -61 5 -82 23
-47 41 -29 119 30 130 11 2 65 5 119 6 l97 1 0 -39z"/>
<path d="M24163 13275 c-54 -15 -133 -51 -133 -61 0 -7 40 -84 44 -84 2 0 30
12 62 27 42 19 73 26 116 26 69 -1 104 -20 124 -68 27 -65 27 -65 -105 -65
-166 0 -233 -27 -267 -107 -60 -141 74 -276 244 -243 59 11 87 23 120 53 l22
20 0 -36 0 -37 60 0 60 0 0 215 c0 267 -10 299 -104 347 -52 27 -173 33 -243
13z m227 -340 c0 -84 -65 -135 -170 -135 -51 0 -65 4 -85 25 -25 24 -31 57
-19 90 12 31 64 44 172 45 l102 0 0 -25z"/>
<path d="M25940 13281 c-46 -14 -87 -40 -114 -71 l-26 -32 0 51 0 51 -60 0
-60 0 0 -290 0 -290 59 0 59 0 4 178 c3 174 4 180 30 219 45 68 126 91 198 55
62 -30 70 -62 70 -269 l0 -183 64 0 65 0 3 184 c3 168 5 187 24 212 49 67 130
91 196 60 63 -30 68 -51 68 -265 l0 -191 65 0 65 0 0 206 c0 235 -7 271 -61
325 -91 91 -281 70 -350 -39 -16 -25 -29 -38 -29 -29 0 28 -81 104 -125 116
-45 12 -108 13 -145 2z"/>
<path d="M26997 13280 c-133 -34 -207 -124 -215 -263 -8 -140 39 -231 149
-286 55 -28 72 -31 150 -31 79 0 93 3 150 33 107 55 152 135 151 268 0 118
-61 213 -165 259 -55 24 -163 34 -220 20z m163 -122 c52 -27 86 -72 95 -128
15 -91 -21 -170 -95 -207 -54 -28 -101 -29 -156 -4 -133 61 -134 281 -1 342
56 25 103 24 157 -3z"/>
<path d="M28137 13276 c-138 -37 -216 -157 -205 -315 6 -76 25 -120 77 -174
57 -61 103 -80 202 -85 107 -5 169 13 232 68 62 55 90 124 91 220 1 102 -21
156 -89 218 -81 75 -192 99 -308 68z m154 -106 c66 -18 119 -99 119 -180 0
-143 -132 -230 -257 -169 -62 30 -93 86 -93 170 0 83 28 133 89 166 48 25 86
28 142 13z"/>
<path d="M15800 12990 l0 -290 65 0 65 0 0 290 0 290 -65 0 -65 0 0 -290z"/>
<path d="M20580 12990 l0 -290 65 0 65 0 0 290 0 290 -65 0 -65 0 0 -290z"/>
<path d="M25350 12990 l0 -290 65 0 65 0 0 290 0 290 -65 0 -65 0 0 -290z"/>
<path d="M28690 12832 c-53 -17 -70 -97 -28 -126 50 -35 108 -4 108 57 0 45
-42 81 -80 69z"/>
<path d="M8067 12812 c-21 -23 -22 -75 -3 -91 13 -11 12 -19 -5 -58 -10 -24
-19 -47 -19 -49 0 -2 15 -4 33 -4 28 0 36 7 71 61 43 67 49 108 21 139 -23 25
-76 26 -98 2z"/>
<path d="M15072 10375 c-60 -50 -47 -142 24 -171 44 -18 77 -12 109 21 94 93
-32 235 -133 150z"/>
<path d="M18943 9923 l-293 -406 0 -59 0 -58 310 0 310 0 0 -135 0 -135 75 0
75 0 0 135 0 135 85 0 85 0 0 65 0 65 -85 0 -85 0 0 400 0 400 -92 0 -93 -1
-292 -406z m324 -390 c-2 -2 -102 -2 -221 -1 l-218 3 219 309 218 309 3 -308
c1 -169 1 -310 -1 -312z"/>
<path d="M21065 10297 c-111 -29 -189 -88 -232 -175 -24 -49 -28 -69 -28 -142
1 -98 19 -141 82 -201 53 -51 98 -71 264 -119 157 -45 216 -74 249 -121 45
-63 38 -159 -16 -219 -43 -48 -105 -70 -193 -70 -113 1 -196 55 -223 147 l-12
43 -82 0 -81 0 8 -51 c27 -168 197 -277 418 -267 119 6 191 32 260 94 72 65
104 138 104 234 0 171 -84 254 -331 324 -234 67 -292 111 -292 221 0 66 30
118 87 152 42 24 58 28 128 28 115 -1 183 -40 220 -128 l15 -37 81 0 82 0 -7
43 c-15 91 -102 189 -205 228 -70 27 -222 35 -296 16z"/>
<path d="M3490 9715 l0 -585 80 0 80 0 0 260 0 260 205 0 205 0 0 65 0 65
-205 0 -205 0 0 195 0 195 250 0 250 0 0 65 0 65 -330 0 -330 0 0 -585z"/>
<path d="M8130 10293 c0 -4 98 -267 218 -583 l217 -575 90 -3 91 -3 213 565
c117 311 215 574 218 586 5 19 1 20 -74 20 l-79 0 -174 -477 c-95 -263 -178
-488 -184 -500 -9 -19 -37 50 -192 475 l-181 497 -82 3 c-44 2 -81 -1 -81 -5z"/>
<path d="M19708 10295 c-5 -5 -8 -269 -8 -588 l0 -579 263 4 c251 4 265 6 343
31 188 62 311 191 359 377 22 83 22 257 0 341 -52 199 -191 334 -404 391 -62
16 -119 21 -311 25 -129 3 -238 2 -242 -2z m477 -136 c159 -29 276 -131 318
-276 67 -229 -8 -477 -171 -566 -82 -45 -151 -57 -319 -57 l-153 0 0 455 0
455 133 0 c73 0 160 -5 192 -11z"/>
<path d="M21750 9710 l0 -580 75 0 75 0 2 427 3 426 190 -426 190 -427 55 0
55 0 190 427 190 427 3 -427 2 -427 75 0 75 0 0 580 0 581 -82 -3 -81 -3 -211
-472 c-116 -260 -213 -473 -216 -473 -3 0 -100 213 -216 473 l-210 472 -82 3
-82 3 0 -581z"/>
<path d="M5380 10165 l0 -115 -60 0 -60 0 0 -65 0 -65 60 0 60 0 0 -298 c0
-337 6 -374 63 -430 47 -45 110 -62 234 -62 l104 0 -3 63 -3 62 -94 5 c-86 5
-95 7 -117 33 l-24 28 0 299 0 299 118 3 117 3 0 60 0 60 -117 3 -117 3 -3
112 -3 112 -77 3 -78 3 0 -116z"/>
<path d="M10337 10273 c-4 -3 -7 -55 -7 -114 l0 -108 -57 -3 -58 -3 -3 -62 -3
-63 60 0 59 0 4 -312 c3 -311 3 -313 28 -363 44 -88 107 -115 268 -115 l102 0
0 64 0 64 -95 4 c-148 5 -139 -17 -143 353 l-3 305 121 0 121 0 -3 63 -3 62
-117 3 -118 3 0 114 0 115 -73 0 c-41 0 -77 -3 -80 -7z"/>
<path d="M14540 10166 l0 -115 -57 -3 -58 -3 -3 -62 -3 -63 61 0 60 0 0 -290
c0 -343 5 -375 64 -435 52 -51 100 -65 230 -65 l96 0 0 64 0 64 -91 4 c-85 3
-92 5 -115 31 l-24 28 0 300 0 299 115 0 115 0 0 65 0 65 -115 0 -114 0 -3
113 -3 112 -77 3 -78 3 0 -115z"/>
<path d="M4516 10040 c-185 -66 -296 -237 -296 -454 1 -294 234 -511 503 -467
90 15 176 60 233 124 l44 49 0 -81 0 -81 75 0 75 0 0 460 0 460 -75 0 -75 0 0
-79 0 -80 -52 53 c-29 29 -79 65 -112 81 -50 24 -73 29 -160 32 -83 3 -111 0
-160 -17z m292 -140 c124 -55 183 -157 183 -316 0 -142 -58 -246 -166 -299
-157 -77 -334 -16 -412 143 -25 52 -28 67 -28 162 0 121 16 168 81 239 85 95
223 123 342 71z"/>
<path d="M6159 10046 c-193 -54 -319 -234 -319 -456 0 -211 115 -388 293 -449
116 -40 258 -35 364 14 88 40 178 136 212 228 l11 27 -83 0 -83 0 -34 -52
c-51 -77 -116 -108 -224 -108 -64 0 -92 5 -131 24 -65 30 -131 104 -150 169
-28 96 -64 87 349 87 l363 0 7 46 c8 59 -9 175 -35 233 -49 113 -141 195 -256
231 -75 23 -210 26 -284 6z m261 -143 c84 -37 149 -127 150 -205 l0 -38 -286
0 -286 0 7 33 c24 114 94 192 205 228 42 14 161 4 210 -18z"/>
<path d="M7140 10047 c-78 -22 -139 -59 -194 -117 -90 -94 -126 -191 -126
-340 0 -200 82 -351 233 -425 189 -93 407 -59 540 85 51 55 102 153 90 173 -2
4 -38 7 -78 7 l-75 0 -24 -47 c-29 -59 -57 -86 -116 -112 -52 -24 -159 -28
-222 -9 -56 17 -131 87 -159 150 -21 47 -24 68 -24 178 0 117 2 129 28 182 54
109 156 166 282 156 33 -3 76 -13 95 -23 50 -25 108 -83 121 -122 l11 -33 84
0 c84 0 85 0 79 23 -31 108 -131 219 -232 258 -72 27 -243 36 -313 16z"/>
<path d="M9560 10044 c-255 -69 -387 -346 -299 -630 63 -203 277 -329 502
-294 196 30 349 170 388 358 16 80 7 223 -20 293 -68 180 -235 290 -435 288
-44 0 -106 -7 -136 -15z m213 -129 c156 -41 234 -161 225 -348 -5 -106 -27
-163 -87 -225 -59 -61 -122 -86 -216 -86 -134 -1 -218 51 -271 168 -24 53 -28
74 -28 156 -1 109 11 157 54 222 37 55 92 94 163 113 68 18 91 18 160 0z"/>
<path d="M11120 10044 c-255 -69 -387 -346 -299 -630 79 -257 387 -375 646
-248 126 61 215 176 244 312 16 80 7 223 -20 293 -68 180 -235 290 -435 288
-44 0 -106 -7 -136 -15z m214 -129 c75 -20 136 -62 174 -122 42 -66 55 -127
50 -231 -7 -138 -63 -228 -173 -282 -41 -20 -66 -24 -135 -24 -72 0 -92 4
-135 26 -65 34 -98 69 -131 143 -24 52 -28 73 -28 155 -1 109 11 157 54 222
37 55 92 94 163 113 68 18 91 18 161 0z"/>
<path d="M12186 10044 c-61 -22 -106 -54 -136 -96 l-29 -40 -3 69 -3 68 -75 0
-75 0 -3 -457 -2 -458 80 0 80 0 0 290 c0 268 2 293 21 344 33 91 106 136 218
136 l51 0 0 80 0 80 -42 -1 c-24 0 -60 -7 -82 -15z"/>
<path d="M12696 10049 c-63 -15 -152 -68 -200 -119 -175 -187 -165 -525 20
-700 167 -158 441 -153 588 11 l46 51 0 -81 0 -81 75 0 75 0 0 460 0 460 -75
0 -75 0 0 -82 0 -83 -35 41 c-44 53 -114 98 -184 118 -59 17 -172 20 -235 5z
m271 -151 c127 -60 199 -211 174 -368 -20 -121 -74 -200 -169 -247 -48 -24
-70 -28 -137 -28 -129 0 -219 57 -274 174 -23 49 -26 69 -26 161 0 88 4 113
23 155 72 157 255 225 409 153z"/>
<path d="M13821 10044 c-59 -21 -112 -55 -144 -94 l-27 -32 0 66 0 66 -75 0
-75 0 0 -460 0 -460 74 0 74 0 4 303 3 302 29 58 c33 69 84 110 157 127 103
25 209 -5 266 -75 53 -64 56 -86 60 -412 l5 -303 74 0 74 0 0 300 c0 183 -4
320 -11 352 -28 132 -113 225 -239 262 -67 20 -191 20 -249 0z"/>
<path d="M15730 10043 c-56 -19 -121 -64 -149 -100 l-20 -28 -1 68 0 67 -75 0
-75 0 0 -460 0 -460 74 0 74 0 4 298 c4 285 5 299 27 350 61 136 217 189 358
121 49 -24 95 -85 113 -149 5 -19 10 -167 10 -327 l0 -293 74 0 74 0 4 298 c4
285 5 299 27 350 61 136 217 189 358 121 49 -24 95 -85 113 -149 5 -19 10
-167 10 -327 l0 -293 75 0 75 0 0 313 c0 351 -4 382 -67 474 -63 94 -166 143
-298 143 -130 0 -222 -44 -295 -142 l-34 -47 -32 48 c-38 56 -107 105 -178
126 -64 19 -189 18 -246 -2z"/>
<path d="M15060 9590 l0 -460 75 0 75 0 0 460 0 460 -75 0 -75 0 0 -460z"/>
<path d="M17430 9745 l0 -65 335 0 335 0 0 65 0 65 -335 0 -335 0 0 -65z"/>
</g>
</svg>
