<?xml version="1.0" standalone="no"?>
<!DOCTYPE svg PUBLIC "-//W3C//DTD SVG 20010904//EN"
 "http://www.w3.org/TR/2001/REC-SVG-20010904/DTD/svg10.dtd">
<svg version="1.0" xmlns="http://www.w3.org/2000/svg"
 width="6912.000000pt" height="3456.000000pt" viewBox="0 0 6912.000000 3456.000000"
 preserveAspectRatio="xMidYMid meet">

<g transform="translate(0.000000,3456.000000) scale(0.100000,-0.100000)"
fill="#000000" stroke="none">
<path d="M11722 24323 l3 -1908 235 0 235 0 3 254 2 254 49 -70 c160 -227 417
-391 712 -454 139 -30 420 -33 551 -6 260 53 482 170 663 352 205 205 341 479
395 800 20 116 22 153 17 345 -6 238 -25 349 -87 525 -138 386 -435 683 -812
808 -248 83 -578 87 -827 11 -244 -74 -493 -252 -619 -442 l-37 -55 -3 746 -2
747 -240 0 -240 0 2 -1907z m1599 542 c429 -75 712 -382 780 -846 19 -129 7
-371 -24 -490 -49 -187 -123 -327 -240 -454 -159 -173 -353 -265 -596 -284
-243 -20 -468 42 -648 178 -184 139 -313 344 -369 586 -15 65 -19 119 -18 285
0 189 2 213 27 305 28 105 94 253 149 333 46 68 164 188 228 232 69 47 178
102 248 125 133 43 319 55 463 30z"/>
<path d="M3592 25943 c10 -38 236 -846 502 -1798 l483 -1730 263 0 264 0 430
1437 c237 791 433 1434 437 1430 6 -6 829 -2852 829 -2866 0 -3 119 -6 264 -6
l265 0 25 83 c13 45 113 388 221 762 108 374 331 1145 496 1713 164 568 299
1034 299 1037 0 3 -114 5 -253 5 l-253 0 -388 -1497 c-214 -824 -392 -1504
-396 -1511 -3 -7 -190 667 -416 1498 l-409 1510 -266 0 -266 0 -187 -657
c-103 -362 -296 -1042 -429 -1510 -133 -469 -245 -853 -248 -853 -3 0 -177
669 -387 1488 -210 818 -385 1497 -388 1510 l-6 22 -253 0 -252 0 19 -67z"/>
<path d="M17291 25968 c-67 -181 -1280 -3527 -1283 -3538 -3 -13 30 -15 239
-18 l242 -2 14 27 c8 16 74 196 148 400 l134 373 785 0 786 0 143 -400 144
-400 246 2 c157 2 246 7 245 13 -1 6 -291 810 -645 1787 l-644 1778 -273 0
-272 0 -9 -22z m608 -1479 l317 -884 -323 -3 c-178 -1 -468 -1 -646 0 l-324 3
283 790 c156 435 301 839 321 898 27 76 41 104 47 94 5 -8 151 -412 325 -898z"/>
<path d="M9750 25283 c-296 -44 -459 -103 -651 -234 -101 -69 -254 -224 -320
-324 -176 -266 -263 -609 -245 -970 20 -420 154 -745 410 -1000 148 -147 310
-246 513 -313 164 -55 246 -67 473 -66 234 0 331 14 499 70 368 123 652 404
777 768 13 38 24 71 24 73 0 2 -114 3 -253 3 l-253 0 -24 -57 c-64 -153 -193
-292 -345 -369 -115 -58 -211 -82 -355 -90 -283 -16 -524 67 -712 245 -149
140 -243 337 -267 561 l-7 70 1127 0 1128 0 7 48 c15 92 8 401 -10 507 -119
668 -647 1090 -1356 1084 -74 -1 -146 -3 -160 -6z m336 -407 c124 -22 191 -44
287 -94 165 -86 307 -245 368 -412 30 -84 59 -225 59 -291 l0 -39 -890 0
c-808 0 -890 1 -890 16 0 42 44 226 71 295 109 283 374 489 684 532 71 10 236
6 311 -7z"/>
<path d="M20840 25275 c-132 -19 -256 -58 -373 -116 -152 -76 -345 -243 -433
-374 l-34 -50 0 253 0 252 -240 0 -240 0 2 -2082 3 -2083 235 0 235 0 5 924 5
925 29 -45 c109 -166 328 -338 531 -420 272 -109 627 -118 913 -22 391 130
691 440 831 858 63 191 75 276 76 540 0 264 -9 331 -66 520 -152 499 -555 848
-1064 920 -120 17 -298 17 -415 0z m310 -415 c169 -32 321 -108 441 -218 214
-197 319 -464 319 -808 0 -304 -91 -560 -268 -754 -182 -199 -404 -293 -692
-292 -265 1 -472 85 -653 264 -127 125 -214 280 -265 466 -24 90 -26 112 -26
312 -1 195 1 223 22 300 52 188 132 338 245 457 228 240 543 338 877 273z"/>
<path d="M24165 25279 c-189 -24 -409 -113 -561 -227 -96 -71 -201 -178 -260
-263 l-44 -63 0 257 0 257 -235 0 -235 0 2 -2082 3 -2083 232 -3 233 -2 2 931
3 932 35 -54 c81 -125 260 -283 418 -367 226 -120 523 -167 799 -126 282 41
508 152 709 346 267 259 415 612 431 1033 18 492 -130 890 -441 1182 -245 229
-559 346 -916 342 -58 -1 -136 -6 -175 -10z m275 -415 c302 -57 531 -229 664
-499 121 -246 149 -566 75 -858 -75 -297 -294 -554 -558 -656 -100 -39 -154
-51 -269 -61 -300 -27 -570 73 -767 281 -162 172 -250 373 -276 634 -48 471
159 894 526 1077 173 87 411 119 605 82z"/>
<path d="M9420 20401 c-78 -25 -139 -81 -160 -147 -20 -60 -8 -162 24 -211 54
-82 145 -120 240 -102 137 26 216 165 176 309 -13 48 -63 106 -112 131 -45 23
-129 33 -168 20z"/>
<path d="M31160 19779 l0 -550 -50 63 c-78 97 -172 171 -295 234 -135 68 -227
93 -370 101 -397 21 -736 -162 -919 -498 -195 -358 -175 -877 47 -1217 126
-194 308 -329 534 -399 82 -25 100 -27 268 -27 155 0 191 3 260 22 199 55 374
174 479 327 l41 60 3 -192 2 -193 175 0 175 0 0 1410 0 1410 -175 0 -175 0 0
-551z m-525 -474 c187 -48 348 -181 438 -360 106 -212 111 -525 12 -750 -89
-201 -259 -342 -475 -395 -78 -19 -249 -17 -335 5 -188 47 -352 180 -437 355
-25 52 -54 124 -63 160 -22 84 -31 304 -16 396 48 310 267 550 546 599 95 17
244 12 330 -10z"/>
<path d="M3630 18840 l0 -1330 175 0 175 0 0 554 0 554 373 4 c365 4 374 5
471 31 247 66 409 192 506 392 55 113 73 197 74 340 0 121 -10 186 -45 283
-83 229 -279 397 -539 461 -137 33 -278 41 -747 41 l-443 0 0 -1330z m1082
1012 c97 -27 142 -49 204 -105 58 -53 99 -130 120 -225 51 -242 -39 -468 -220
-553 -111 -52 -169 -59 -518 -59 l-318 0 0 486 0 486 328 -4 c292 -4 335 -7
404 -26z"/>
<path d="M16770 18840 l0 -1330 175 0 175 0 -2 1328 -3 1327 -172 3 -173 2 0
-1330z"/>
<path d="M12400 19860 l0 -259 -132 -3 -133 -3 0 -140 0 -140 132 -3 131 -3 5
-682 c4 -591 6 -690 21 -745 49 -190 152 -294 343 -348 44 -13 116 -18 296
-21 l238 -5 -3 148 -3 149 -190 5 c-180 5 -193 6 -240 31 -64 32 -92 81 -105
180 -5 41 -10 347 -10 682 l0 607 275 0 275 0 0 145 0 145 -275 0 -275 0 0
260 0 260 -175 0 -175 0 0 -260z"/>
<path d="M19950 19860 l0 -260 -135 0 -135 0 0 -145 0 -145 135 0 135 0 0
-657 c1 -699 3 -743 50 -866 29 -78 110 -164 192 -205 114 -57 160 -65 416
-70 l232 -4 0 151 0 151 -173 0 c-209 0 -257 11 -310 69 -23 26 -38 56 -46 90
-7 35 -11 263 -11 696 l0 645 270 0 270 0 0 145 0 145 -270 0 -270 0 0 260 0
260 -175 0 -175 0 0 -260z"/>
<path d="M6615 19630 c-238 -26 -419 -133 -534 -314 l-31 -50 0 167 0 167
-175 0 -175 0 0 -1045 0 -1045 174 0 175 0 3 648 c4 625 4 650 25 723 46 165
128 274 246 329 88 41 155 56 285 65 l112 7 0 179 c0 164 -1 179 -17 178 -10
-1 -49 -5 -88 -9z"/>
<path d="M18487 19629 c-108 -11 -248 -56 -339 -110 -67 -39 -166 -128 -206
-184 l-21 -30 -1 148 0 147 -175 0 -175 0 0 -1045 0 -1045 175 0 175 0 0 624
c0 512 3 639 15 710 43 245 171 395 399 465 86 26 257 29 350 5 177 -46 308
-164 368 -331 43 -123 48 -201 48 -855 l0 -618 170 0 171 0 -3 718 -4 717 -26
97 c-111 406 -464 631 -921 587z"/>
<path d="M26717 19629 c-226 -19 -417 -126 -533 -299 l-44 -65 0 168 0 167
-172 -2 -173 -3 -3 -1042 -2 -1043 174 0 175 0 3 648 c4 629 4 649 26 725 44
157 126 268 240 326 81 41 163 59 300 67 l112 7 0 173 c0 95 -3 174 -7 176 -5
2 -48 1 -96 -3z"/>
<path d="M7770 19624 c-411 -52 -732 -310 -853 -689 -45 -140 -52 -190 -51
-385 0 -152 4 -201 21 -277 91 -387 351 -659 732 -764 97 -27 355 -38 469 -19
402 64 725 346 835 730 51 177 60 411 22 594 -66 319 -265 577 -548 711 -149
71 -262 96 -442 100 -82 2 -166 1 -185 -1z m327 -319 c229 -53 416 -244 485
-495 20 -73 23 -109 23 -250 0 -141 -3 -177 -23 -250 -56 -205 -178 -359 -352
-444 -128 -62 -191 -77 -330 -77 -136 0 -200 14 -320 73 -156 75 -279 233
-330 423 -33 122 -39 357 -12 489 63 302 273 505 564 546 77 11 212 4 295 -15z"/>
<path d="M10845 19624 c-424 -61 -729 -330 -831 -731 -88 -347 -34 -719 141
-983 97 -146 262 -284 419 -349 159 -66 210 -75 436 -75 167 -1 217 3 270 17
130 36 234 82 319 140 68 46 179 155 227 222 49 69 121 213 130 263 l7 32
-185 0 -185 0 -19 -42 c-90 -207 -263 -320 -524 -344 -264 -23 -532 123 -645
351 -32 65 -74 222 -75 278 0 16 46 17 829 17 640 0 832 3 837 12 12 20 8 327
-5 398 -64 340 -259 593 -554 717 -136 57 -222 74 -402 78 -88 2 -173 1 -190
-1z m344 -315 c256 -65 417 -246 451 -509 5 -41 10 -78 10 -82 0 -5 -296 -8
-658 -8 l-659 0 9 58 c14 91 27 132 70 221 73 152 223 277 388 322 116 31 259
30 389 -2z"/>
<path d="M14326 19620 c-451 -71 -774 -391 -857 -850 -22 -118 -16 -353 10
-480 53 -251 188 -468 384 -616 78 -58 220 -127 332 -161 85 -25 101 -27 295
-27 181 0 214 2 283 22 251 70 443 198 587 392 62 83 137 243 167 355 25 92
27 116 27 300 1 175 -2 211 -22 288 -99 392 -357 654 -741 754 -77 20 -127 25
-251 28 -85 2 -182 0 -214 -5z m363 -316 c226 -52 416 -241 481 -476 44 -161
44 -375 0 -537 -92 -334 -402 -538 -761 -500 -369 38 -599 332 -599 765 0 424
221 713 584 764 78 11 211 4 295 -16z"/>
<path d="M21852 19620 c-457 -64 -779 -399 -843 -877 -18 -137 -7 -376 24
-494 53 -203 146 -369 280 -496 93 -89 146 -124 260 -178 166 -77 232 -90 462
-90 188 0 206 2 299 28 238 66 435 212 555 412 40 66 102 215 95 227 -3 4 -86
8 -184 8 l-179 0 -41 -78 c-56 -108 -141 -192 -245 -242 -104 -50 -174 -64
-315 -64 -137 0 -210 18 -324 77 -188 98 -312 288 -339 525 l-5 42 833 0 832
0 7 53 c10 88 7 248 -8 337 -66 405 -318 687 -705 787 -76 20 -127 25 -246 28
-82 2 -178 0 -213 -5z m258 -291 c94 -11 204 -46 277 -87 77 -43 175 -148 217
-233 38 -78 66 -184 66 -256 l0 -43 -655 0 -655 0 0 23 c0 48 41 190 74 254
108 216 300 335 566 351 14 1 64 -3 110 -9z"/>
<path d="M24029 19614 c-203 -36 -372 -127 -515 -275 -169 -175 -263 -397
-283 -667 -43 -562 235 -1017 706 -1158 74 -22 113 -27 243 -31 132 -4 169 -2
250 16 98 22 225 76 308 132 69 48 177 155 215 213 l32 51 3 -40 c2 -22 2
-155 -1 -295 -4 -282 -11 -320 -72 -446 -75 -154 -230 -273 -403 -310 -101
-21 -282 -18 -378 6 -196 49 -347 164 -421 318 l-38 81 -167 1 -168 0 0 -26
c0 -14 14 -67 31 -118 98 -293 354 -493 719 -562 105 -20 343 -22 455 -5 161
26 337 103 463 204 121 95 233 264 281 421 51 165 51 172 51 1364 l0 1112
-175 0 -175 0 -1 -187 c0 -150 -3 -184 -12 -169 -58 94 -180 206 -294 270
-179 100 -436 140 -654 100z m384 -298 c175 -29 343 -137 441 -285 98 -147
142 -317 133 -516 -12 -287 -136 -514 -348 -638 -208 -122 -499 -122 -709 0
-138 80 -264 243 -309 399 -68 234 -49 492 50 684 143 276 418 408 742 356z"/>
<path d="M27780 19619 c-231 -34 -466 -171 -603 -352 -158 -207 -221 -409
-221 -707 1 -254 44 -426 156 -614 96 -161 271 -320 429 -390 134 -59 201 -71
389 -70 184 1 241 11 382 64 124 46 288 176 365 287 l38 55 3 -191 2 -191 175
0 175 0 0 1045 0 1045 -175 0 -175 0 -2 -184 -3 -185 -62 79 c-93 118 -237
218 -393 272 -119 41 -339 58 -480 37z m415 -314 c187 -48 348 -181 438 -360
106 -211 111 -526 12 -750 -87 -196 -261 -343 -462 -391 -85 -20 -260 -23
-333 -5 -30 7 -98 33 -150 58 -80 38 -108 59 -175 127 -66 66 -89 99 -127 176
-25 52 -54 124 -63 160 -22 84 -31 304 -16 396 37 243 175 441 374 538 50 25
124 52 162 61 85 18 252 13 340 -10z"/>
<path d="M32719 19619 c-397 -58 -701 -306 -827 -674 -89 -262 -78 -604 29
-862 73 -175 245 -372 402 -462 173 -98 295 -131 507 -138 172 -6 274 8 410
54 311 106 547 347 649 662 53 163 64 433 26 616 -104 497 -515 820 -1035 814
-58 -1 -130 -5 -161 -10z m356 -314 c187 -50 360 -197 436 -372 58 -132 82
-300 68 -468 -28 -328 -192 -546 -489 -646 -86 -29 -106 -33 -210 -32 -125 1
-179 10 -280 50 -186 74 -323 237 -382 453 -20 74 -23 109 -23 265 0 157 3
191 23 263 60 220 202 387 393 462 126 50 328 60 464 25z"/>
<path d="M35101 19619 c-187 -36 -348 -141 -447 -289 l-44 -65 0 168 0 167
-172 -2 -173 -3 -3 -1042 -2 -1043 175 0 175 0 0 599 c0 361 4 631 10 678 28
206 116 350 259 422 80 41 162 60 294 68 l107 6 0 174 0 173 -67 -1 c-38 -1
-88 -5 -112 -10z"/>
<path d="M9298 18278 l-3 -1323 -24 -42 c-39 -68 -88 -87 -246 -93 l-130 -5 0
-145 0 -145 170 1 c125 0 187 5 234 17 133 36 240 116 294 224 58 114 57 83
57 1518 l0 1315 -175 0 -175 0 -2 -1322z"/>
<path d="M54715 17800 c-150 -14 -329 -38 -358 -49 -14 -5 -28 -14 -31 -20 -4
-6 -7 -533 -7 -1172 0 -864 3 -1165 12 -1175 16 -19 396 -20 423 -1 16 12 17
45 19 434 2 391 3 424 20 440 15 15 36 18 130 18 84 0 119 -4 135 -15 24 -16
101 -136 195 -300 118 -208 169 -306 232 -450 25 -58 55 -113 66 -122 19 -16
45 -18 221 -18 199 0 238 6 238 35 0 16 -135 294 -233 480 -55 105 -80 149
-148 264 -8 14 -37 60 -66 103 -28 43 -53 86 -54 96 -6 36 14 62 69 94 115 65
195 170 249 324 27 76 28 87 28 274 0 189 -1 197 -28 270 -16 41 -43 102 -62
135 -35 63 -141 172 -211 219 -67 44 -212 97 -324 117 -124 23 -372 32 -515
19z m417 -399 c175 -61 268 -191 268 -377 0 -220 -131 -358 -373 -390 -169
-22 -224 -15 -246 32 -17 37 -15 680 2 714 7 14 28 31 47 38 51 18 230 8 302
-17z"/>
<path d="M44888 17729 c-17 -9 -18 -76 -18 -1169 0 -1040 2 -1160 16 -1174 14
-14 97 -16 763 -16 611 0 751 2 766 13 16 12 18 31 20 157 1 127 -1 146 -17
162 -17 17 -48 18 -531 18 l-514 0 -21 23 c-22 23 -22 29 -22 323 0 164 0 309
0 322 0 12 9 31 20 42 19 19 33 20 423 20 307 0 407 3 420 13 14 10 16 34 17
147 1 74 1 140 1 147 -1 6 -8 19 -17 27 -13 14 -65 16 -418 16 l-403 0 -21 23
c-25 27 -26 37 -24 310 2 202 3 218 22 237 19 19 33 20 488 20 407 0 470 2
490 16 21 14 22 22 22 161 0 127 -2 147 -17 159 -15 11 -152 13 -723 13 -461
0 -711 -3 -722 -10z"/>
<path d="M48140 17213 c-166 -16 -277 -37 -361 -67 -194 -70 -324 -161 -433
-306 -63 -84 -101 -164 -135 -285 -29 -102 -31 -121 -31 -275 0 -142 3 -179
24 -260 41 -159 96 -272 178 -364 201 -226 523 -330 966 -312 219 9 444 48
473 82 13 16 12 18 -38 287 -9 52 -36 59 -143 35 -72 -15 -143 -22 -290 -25
-184 -5 -201 -3 -297 20 -64 16 -125 39 -165 62 -68 39 -148 111 -148 132 0 7
-4 13 -8 13 -15 0 -52 82 -72 160 -45 177 -12 389 79 509 74 98 185 165 326
198 59 13 120 18 230 18 132 0 164 -4 269 -29 118 -29 119 -29 135 -10 9 11
34 80 55 153 54 182 57 177 -107 218 -159 40 -375 60 -507 46z"/>
<path d="M50290 17213 c-142 -16 -297 -65 -389 -122 -68 -42 -87 -57 -156
-127 -177 -181 -273 -487 -246 -777 25 -259 102 -447 245 -595 180 -188 434
-274 724 -244 64 7 145 20 179 31 147 45 320 164 405 278 21 29 38 54 38 57 0
2 15 30 33 63 156 276 155 746 -2 1011 -17 29 -31 56 -31 60 0 10 -129 154
-159 177 -14 10 -28 22 -31 25 -14 15 -139 83 -196 106 -99 39 -314 69 -414
57z m186 -388 c118 -35 203 -124 256 -267 27 -74 31 -98 35 -231 7 -188 -4
-250 -67 -392 -28 -65 -117 -155 -180 -183 -81 -37 -213 -42 -295 -12 -107 40
-201 160 -241 309 -20 77 -29 279 -15 373 22 155 109 306 209 366 83 48 208
64 298 37z"/>
<path d="M52635 17210 c-241 -21 -406 -88 -521 -212 -91 -99 -124 -188 -124
-340 0 -138 27 -203 124 -301 75 -76 151 -122 266 -164 114 -42 364 -123 378
-123 23 0 162 -68 195 -96 43 -35 56 -61 57 -107 0 -57 -29 -90 -102 -118 -59
-22 -77 -24 -263 -24 -161 0 -214 4 -275 19 -83 20 -224 66 -284 91 -58 25
-82 10 -94 -57 -33 -176 -44 -266 -34 -284 11 -20 154 -75 292 -112 118 -32
284 -46 449 -39 186 9 257 19 378 58 181 57 283 135 342 259 35 74 35 77 36
205 0 128 -1 131 -33 195 -88 172 -231 258 -637 385 -226 71 -345 152 -345
236 0 63 94 131 206 149 162 27 435 -11 586 -80 64 -30 91 4 102 131 4 37 13
89 21 115 19 62 19 108 1 123 -24 20 -145 52 -266 71 -141 22 -335 30 -455 20z"/>
<path d="M57415 17214 c-186 -28 -254 -48 -359 -107 -27 -15 -50 -27 -53 -27
-8 0 -125 -101 -159 -137 -90 -99 -173 -259 -216 -422 -30 -117 -30 -401 2
-525 56 -223 164 -373 365 -509 127 -85 388 -147 619 -147 197 0 524 58 568
102 20 20 23 53 8 94 -6 15 -17 73 -24 130 -7 57 -19 111 -26 119 -17 20 -53
19 -125 -5 -184 -60 -428 -80 -560 -44 -33 9 -77 20 -97 25 -51 12 -146 70
-190 116 -43 45 -88 126 -88 159 0 31 33 61 77 69 20 3 283 5 585 4 418 -2
552 1 561 10 17 17 10 343 -9 414 -7 28 -14 62 -14 74 0 66 -91 261 -165 356
-54 68 -172 153 -258 185 -122 47 -347 80 -442 66z m227 -404 c72 -27 160
-105 195 -174 30 -57 37 -146 15 -168 -10 -10 -91 -13 -372 -13 -401 0 -395
-1 -393 68 2 74 100 210 187 261 102 60 252 70 368 26z"/>
<path d="M58944 17177 c-8 -4 -14 -16 -14 -26 0 -10 29 -103 64 -207 35 -104
70 -209 78 -234 21 -62 92 -259 128 -350 16 -41 45 -118 65 -170 38 -101 93
-233 130 -315 13 -27 40 -88 60 -135 76 -173 159 -335 179 -352 18 -15 45 -18
188 -18 96 0 177 4 190 11 26 11 67 89 233 444 26 55 60 127 75 160 16 33 48
107 73 165 25 58 52 121 60 140 62 140 144 360 248 670 61 182 66 204 48 216
-6 4 -102 7 -212 8 -165 1 -204 -2 -219 -14 -11 -9 -28 -49 -39 -95 -11 -44
-29 -100 -39 -125 -9 -25 -24 -67 -33 -95 -23 -75 -76 -226 -93 -262 -8 -17
-14 -36 -14 -42 0 -6 -12 -39 -26 -74 -14 -34 -36 -89 -49 -122 -13 -33 -37
-96 -55 -140 -18 -44 -43 -111 -57 -150 -13 -38 -35 -81 -49 -95 -23 -23 -26
-24 -51 -10 -21 12 -35 42 -78 165 -28 83 -72 209 -97 280 -53 152 -143 433
-189 590 -43 150 -58 185 -78 185 -177 5 -416 3 -427 -3z"/>
<path d="M13268 15284 c-38 -20 -46 -58 -21 -92 29 -39 74 -41 102 -6 26 33
27 55 4 82 -25 28 -53 34 -85 16z"/>
<path d="M27930 15268 c-15 -16 -19 -30 -15 -48 16 -63 77 -81 114 -34 26 34
26 54 1 82 -27 29 -73 29 -100 0z"/>
<path d="M29526 15268 c-22 -32 -20 -61 7 -86 27 -26 54 -28 85 -6 28 19 30
74 4 97 -27 25 -78 22 -96 -5z"/>
<path d="M12080 14865 l0 -405 50 0 50 0 0 48 0 49 40 -38 c74 -70 213 -89
306 -41 228 118 210 494 -27 577 -100 36 -233 6 -292 -64 l-27 -33 0 156 0
156 -50 0 -50 0 0 -405z m388 96 c77 -39 112 -104 112 -203 -1 -227 -276 -303
-375 -104 -57 113 -14 260 89 307 53 24 127 24 174 0z"/>
<path d="M14220 14865 l0 -405 50 0 50 0 0 405 0 405 -50 0 -50 0 0 -405z"/>
<path d="M18890 14865 l0 -405 50 0 49 0 3 131 3 130 115 -130 115 -130 70 -1
69 0 -40 43 c-22 23 -86 91 -143 151 l-102 109 68 71 c37 39 102 106 143 149
l75 77 -72 0 -72 0 -113 -131 -113 -130 -3 235 -2 236 -50 0 -50 0 0 -405z"/>
<path d="M22970 14865 l0 -405 50 0 50 0 0 405 0 405 -50 0 -50 0 0 -405z"/>
<path d="M25420 15114 l0 -156 -25 31 c-41 48 -122 81 -199 81 -172 0 -302
-157 -282 -343 17 -170 150 -289 306 -274 66 6 131 36 171 80 l29 31 0 -52 0
-52 50 0 50 0 0 405 0 405 -50 0 -50 0 0 -156z m-110 -154 c124 -64 148 -269
42 -367 -102 -94 -263 -58 -317 71 -20 48 -21 150 -1 196 17 40 70 94 106 109
43 17 127 13 170 -9z"/>
<path d="M27650 14865 l0 -405 50 0 50 0 0 405 0 405 -50 0 -50 0 0 -405z"/>
<path d="M10737 15230 c-75 -13 -149 -54 -206 -115 -61 -65 -86 -116 -101
-208 -28 -178 58 -344 218 -420 60 -29 76 -32 157 -32 79 1 98 4 156 32 37 17
84 47 106 67 68 60 123 190 123 286 l0 30 -210 0 -210 0 0 -40 0 -40 154 0
154 0 -8 -32 c-12 -50 -21 -69 -53 -116 -89 -124 -309 -128 -416 -6 -92 105
-95 293 -6 409 83 109 278 128 386 38 16 -14 36 -38 45 -54 14 -27 19 -29 74
-29 33 0 60 4 60 8 0 16 -58 98 -91 128 -87 79 -212 115 -332 94z"/>
<path d="M21112 15229 c-205 -28 -350 -237 -314 -450 23 -132 91 -227 202
-283 82 -41 153 -52 234 -37 181 33 303 164 314 337 l5 74 -207 0 -206 0 0
-40 0 -40 150 0 c149 0 150 0 150 -22 -1 -59 -71 -162 -133 -194 -54 -29 -132
-36 -198 -19 -137 35 -210 134 -210 287 0 87 21 153 68 208 107 125 326 121
416 -7 30 -42 32 -43 90 -43 l58 0 -27 51 c-48 88 -153 162 -246 174 -84 11
-94 12 -146 4z"/>
<path d="M27064 15229 c-176 -23 -308 -170 -321 -356 -14 -207 108 -371 309
-414 116 -25 270 23 349 108 91 98 128 244 95 373 -51 201 -223 316 -432 289z
m180 -108 c56 -25 104 -76 133 -138 20 -42 24 -69 25 -139 0 -76 -4 -93 -31
-149 -50 -101 -135 -155 -245 -155 -71 0 -118 15 -168 53 -60 46 -95 108 -110
193 -35 208 107 377 301 359 30 -3 73 -14 95 -24z"/>
<path d="M33071 15224 c-21 -15 -51 -70 -51 -94 0 -21 48 -10 64 15 21 31 57
33 99 3 37 -27 100 -27 130 -1 17 15 47 71 47 88 0 3 -13 5 -29 5 -21 0 -32
-6 -36 -20 -10 -33 -48 -35 -98 -6 -50 30 -92 33 -126 10z"/>
<path d="M3427 15224 c-4 -4 -7 -178 -7 -386 l0 -378 55 0 55 0 -2 383 -3 382
-45 3 c-25 2 -49 0 -53 -4z"/>
<path d="M14828 15225 c-3 -3 50 -112 118 -241 l124 -236 0 -144 0 -144 50 0
50 0 0 142 0 141 125 240 c69 132 125 241 125 243 0 2 -25 4 -55 4 l-55 0 -92
-190 c-50 -104 -94 -190 -98 -190 -3 0 -47 86 -97 190 l-91 190 -50 0 c-27 0
-51 -2 -54 -5z"/>
<path d="M31877 15224 c-4 -4 -7 -142 -7 -306 0 -329 -2 -344 -60 -368 -37
-15 -95 -7 -122 16 -10 10 -24 37 -30 61 l-10 43 -49 0 c-47 0 -49 -1 -49 -28
0 -15 12 -52 26 -80 60 -120 231 -149 334 -56 63 57 65 72 65 414 l0 305 -45
3 c-25 2 -49 0 -53 -4z"/>
<path d="M4438 15138 l-3 -73 -37 -3 c-37 -3 -38 -4 -38 -43 0 -39 0 -39 40
-39 l40 0 0 -208 c0 -182 2 -212 18 -242 27 -51 72 -70 165 -70 l78 0 -3 43
-3 42 -63 5 c-93 7 -92 6 -92 237 l0 193 80 0 80 0 0 40 0 40 -80 0 -80 0 0
75 0 75 -50 0 -49 0 -3 -72z"/>
<path d="M8170 15135 l0 -75 -40 0 -40 0 0 -40 c0 -40 0 -40 39 -40 l40 0 3
-213 c3 -185 5 -217 21 -240 32 -50 73 -67 160 -67 l77 0 0 45 0 45 -59 0
c-92 0 -91 -3 -91 231 l0 199 75 0 75 0 0 40 0 40 -75 0 -75 0 0 75 0 75 -55
0 -55 0 0 -75z"/>
<path d="M3900 15054 c-19 -8 -47 -27 -62 -41 l-28 -27 0 37 0 37 -55 0 -55 0
0 -300 0 -300 55 0 55 0 0 198 c0 185 1 200 23 242 27 54 73 80 142 80 70 0
115 -25 143 -80 21 -41 22 -57 22 -242 l0 -198 56 0 56 0 -4 213 c-4 189 -7
217 -26 259 -40 91 -116 138 -222 137 -36 0 -81 -7 -100 -15z"/>
<path d="M4977 15056 c-47 -17 -99 -57 -132 -99 -39 -52 -55 -111 -55 -201 0
-68 4 -90 29 -142 48 -102 143 -164 252 -164 120 0 205 42 259 127 42 66 40
73 -22 73 -48 -1 -55 -4 -73 -33 -11 -17 -36 -42 -55 -55 -30 -20 -44 -23
-101 -20 -102 5 -160 52 -184 151 l-7 27 241 0 241 0 0 73 c0 115 -52 201
-153 254 -43 22 -188 28 -240 9z m195 -93 c50 -25 76 -60 92 -125 l6 -28 -189
0 -189 0 11 42 c27 108 164 165 269 111z"/>
<path d="M5645 15046 c-64 -29 -129 -102 -151 -168 -25 -76 -16 -207 19 -274
69 -135 235 -193 365 -128 28 14 63 39 77 56 l25 30 0 -89 c0 -102 -15 -140
-72 -186 -32 -26 -45 -30 -105 -30 -82 -2 -144 26 -175 79 -19 32 -24 34 -70
34 -50 0 -50 0 -43 -27 27 -109 135 -177 280 -178 98 0 167 28 221 87 69 77
69 75 72 461 l3 347 -55 0 -56 0 0 -46 0 -46 -32 33 c-49 49 -102 69 -183 69
-53 0 -82 -6 -120 -24z m217 -81 c44 -18 92 -72 108 -120 7 -21 10 -67 8 -105
-3 -57 -9 -77 -33 -112 -54 -77 -155 -108 -237 -74 -118 50 -162 222 -88 339
48 77 156 109 242 72z"/>
<path d="M6462 15055 c-19 -8 -47 -29 -63 -46 l-29 -31 0 41 0 41 -50 0 -50 0
0 -300 0 -300 50 0 50 0 0 193 c0 169 3 197 20 235 22 48 78 81 138 82 32 0
32 0 32 50 0 50 0 50 -32 50 -18 -1 -48 -7 -66 -15z"/>
<path d="M6824 15051 c-104 -47 -164 -139 -172 -262 -6 -97 15 -171 67 -237
57 -71 114 -97 216 -97 90 1 126 14 188 73 l37 36 0 -52 0 -52 50 0 50 0 0
300 0 300 -50 0 -50 0 0 -51 0 -50 -34 35 c-18 20 -53 45 -77 56 -58 26 -168
27 -225 1z m207 -85 c81 -34 122 -102 122 -206 0 -100 -43 -170 -125 -205
-101 -41 -210 6 -254 110 -19 47 -22 136 -5 186 13 40 67 97 109 115 37 17
113 17 153 0z"/>
<path d="M7641 15058 c-19 -7 -49 -27 -68 -45 l-33 -34 0 41 0 40 -50 0 -50 0
0 -300 0 -300 50 0 50 0 0 183 c0 100 5 200 11 222 20 74 77 115 159 115 82 0
139 -41 159 -115 6 -22 11 -122 11 -222 l0 -183 50 0 50 0 0 203 c0 111 -5
218 -10 238 -15 52 -49 99 -97 133 -37 25 -53 30 -120 32 -43 2 -93 -2 -112
-8z"/>
<path d="M8682 15039 c-112 -55 -156 -134 -157 -274 0 -76 4 -99 26 -145 48
-104 128 -160 240 -168 117 -8 214 34 271 120 42 62 38 78 -20 78 -45 0 -51
-3 -73 -37 -13 -20 -40 -44 -59 -55 -42 -22 -127 -24 -173 -4 -57 24 -107 93
-107 147 0 18 9 19 240 19 l240 0 0 53 c0 123 -54 217 -152 266 -52 27 -72 31
-138 31 -66 0 -86 -4 -138 -31z m178 -60 c78 -18 140 -84 140 -149 0 -19 -6
-20 -185 -20 -204 0 -199 -2 -171 63 16 40 77 95 114 103 15 3 32 7 37 9 16 5
17 5 65 -6z"/>
<path d="M9330 15043 c-85 -44 -121 -131 -85 -206 23 -48 79 -81 192 -116 131
-40 148 -54 144 -119 -2 -34 -55 -62 -119 -62 -67 0 -105 19 -126 65 -16 33
-20 35 -66 35 -56 0 -60 -7 -36 -63 17 -43 85 -101 135 -115 49 -15 138 -15
182 -1 83 28 131 89 131 167 0 80 -52 126 -191 168 -113 34 -136 47 -151 83
-10 26 -10 35 4 56 23 35 52 47 109 47 57 0 95 -22 116 -70 14 -30 18 -32 63
-32 39 0 48 3 48 18 0 36 -46 107 -88 137 -38 26 -54 30 -125 33 -74 3 -88 0
-137 -25z"/>
<path d="M11452 15044 c-96 -48 -152 -138 -160 -260 -8 -134 45 -242 149 -299
47 -26 64 -30 134 -30 90 0 126 14 188 73 l37 36 0 -52 0 -52 50 0 50 0 0 300
0 300 -50 0 -50 0 0 -51 0 -50 -34 35 c-74 79 -211 101 -314 50z m257 -98
c102 -71 116 -247 27 -344 -73 -81 -208 -81 -283 0 -53 57 -73 182 -41 258 18
42 62 88 103 107 50 23 145 12 194 -21z"/>
<path d="M13025 15056 c-17 -7 -45 -30 -63 -50 l-32 -37 0 46 0 45 -50 0 -50
0 0 -300 0 -300 49 0 50 0 3 203 c3 190 4 204 26 238 24 40 81 69 132 69 29 0
30 1 30 50 0 50 0 50 -32 50 -18 -1 -47 -7 -63 -14z"/>
<path d="M13652 15040 c-70 -36 -124 -97 -144 -164 -21 -68 -16 -193 11 -251
46 -103 132 -165 242 -173 117 -8 214 34 271 120 42 62 38 78 -20 78 -45 0
-50 -3 -73 -37 -13 -21 -40 -46 -59 -55 -42 -22 -128 -23 -173 -4 -57 24 -107
93 -107 146 0 19 11 20 238 22 l237 3 3 48 c7 107 -50 213 -140 262 -44 24
-68 30 -138 33 -79 3 -89 2 -148 -28z m178 -61 c78 -18 140 -84 140 -149 0
-19 -6 -20 -185 -20 -204 0 -199 -2 -171 63 16 40 77 95 114 103 15 3 32 7 37
9 16 5 17 5 65 -6z"/>
<path d="M15665 15046 c-64 -29 -129 -102 -151 -168 -26 -79 -16 -208 21 -277
71 -130 211 -183 347 -131 28 11 69 36 90 57 l38 37 0 -52 0 -52 50 0 50 0 0
300 0 300 -50 0 -50 0 0 -51 0 -52 -46 42 c-59 56 -99 71 -181 71 -50 0 -81
-6 -118 -24z m216 -81 c80 -35 120 -101 120 -200 0 -102 -38 -170 -116 -206
-156 -72 -309 65 -278 248 13 74 47 123 106 152 49 25 120 27 168 6z"/>
<path d="M16495 15058 c-16 -6 -47 -23 -67 -40 l-38 -29 0 36 0 35 -50 0 -50
0 0 -300 0 -300 50 0 50 0 0 198 c0 188 1 201 23 242 28 54 75 80 142 80 69 0
115 -26 143 -80 21 -42 22 -57 22 -242 l0 -198 49 0 50 0 3 203 c3 226 9 249
78 294 46 32 134 32 181 0 63 -42 69 -67 69 -294 l0 -203 50 0 50 0 0 218 c0
189 -3 222 -19 257 -41 91 -125 139 -231 133 -81 -4 -134 -31 -177 -87 -18
-23 -33 -38 -33 -32 0 20 -66 84 -105 102 -44 21 -141 24 -190 7z"/>
<path d="M17574 15054 c-60 -21 -119 -77 -151 -142 -25 -51 -28 -67 -27 -152
1 -137 45 -220 145 -275 47 -26 64 -30 134 -30 90 0 126 14 188 73 l37 36 0
-52 0 -52 50 0 50 0 0 300 0 300 -50 0 -50 0 0 -51 0 -50 -34 35 c-48 52 -108
76 -186 75 -36 0 -84 -7 -106 -15z m214 -95 c52 -26 87 -75 102 -146 55 -254
-259 -382 -375 -153 -22 43 -24 151 -3 200 18 43 63 88 103 106 46 20 122 17
173 -7z"/>
<path d="M18315 15042 c-67 -32 -118 -83 -149 -151 -30 -67 -29 -197 3 -269
30 -67 104 -135 173 -158 72 -23 176 -16 244 19 131 66 194 228 149 382 -22
75 -105 163 -179 188 -78 27 -170 22 -241 -11z m231 -87 c143 -84 132 -320
-19 -396 -79 -41 -192 -11 -244 63 -24 36 -28 53 -32 124 -2 71 0 91 19 130
48 99 179 136 276 79z"/>
<path d="M19614 15054 c-60 -21 -119 -77 -151 -142 -25 -51 -28 -67 -27 -152
1 -137 45 -220 145 -275 47 -26 64 -30 134 -30 90 0 126 14 188 73 l37 36 0
-52 0 -52 50 0 50 0 0 300 0 300 -50 0 -50 0 0 -51 0 -50 -34 35 c-48 52 -108
76 -186 75 -36 0 -84 -7 -106 -15z m214 -95 c151 -73 141 -339 -16 -405 -156
-65 -306 78 -271 259 26 138 161 206 287 146z"/>
<path d="M21840 15053 c-26 -9 -66 -38 -96 -68 -62 -61 -84 -122 -84 -226 0
-125 52 -219 151 -274 49 -27 63 -30 144 -30 77 1 97 5 140 27 66 34 112 86
130 146 6 21 4 22 -43 22 -45 0 -52 -3 -77 -36 -41 -54 -81 -74 -148 -74 -92
0 -155 40 -183 117 -23 67 -37 63 226 63 l240 0 0 63 c0 115 -46 201 -138 254
-38 23 -59 27 -131 30 -61 2 -99 -2 -131 -14z m213 -96 c42 -23 71 -64 82
-114 l7 -33 -191 0 -191 0 6 28 c32 130 166 186 287 119z"/>
<path d="M22464 15045 c-64 -32 -95 -79 -97 -144 -3 -88 47 -132 206 -181 56
-18 112 -41 125 -53 30 -28 28 -63 -7 -98 -27 -26 -36 -29 -94 -29 -56 0 -70
4 -97 27 -17 14 -36 37 -41 50 -7 20 -15 23 -59 23 -50 0 -50 0 -44 -27 17
-70 59 -116 131 -143 131 -49 269 -6 315 97 46 103 -16 182 -177 227 -94 27
-142 53 -153 84 -21 60 29 107 113 106 63 -1 100 -24 117 -70 11 -32 14 -34
61 -34 l50 0 -6 37 c-8 48 -53 103 -107 131 -64 32 -168 31 -236 -3z"/>
<path d="M23370 15038 c-114 -58 -168 -163 -157 -303 9 -117 58 -200 148 -250
49 -27 62 -30 144 -29 100 1 142 14 200 66 34 29 75 94 75 118 0 5 -22 10 -49
10 -45 0 -50 -3 -74 -38 -33 -50 -80 -72 -154 -72 -98 0 -164 54 -187 153 l-6
27 239 0 239 0 7 29 c8 39 -9 130 -34 179 -22 43 -73 92 -124 119 -20 10 -63
18 -117 21 -80 3 -88 2 -150 -30z m179 -59 c24 -5 57 -19 73 -30 31 -23 68
-86 68 -119 0 -19 -5 -20 -189 -20 l-190 0 8 28 c22 74 67 123 129 142 37 11
50 11 101 -1z"/>
<path d="M25846 15050 c-57 -22 -119 -78 -146 -131 -43 -83 -43 -220 0 -312
74 -156 290 -206 442 -101 39 27 102 120 92 136 -3 4 -26 8 -52 8 -43 0 -49
-3 -70 -35 -34 -54 -76 -75 -147 -75 -71 0 -116 21 -158 72 -15 19 -30 51 -34
71 l-6 37 243 0 243 0 -5 79 c-10 169 -121 272 -293 270 -35 0 -81 -8 -109
-19z m204 -85 c42 -22 78 -68 88 -112 l10 -43 -189 0 c-145 0 -189 3 -189 13
1 24 38 92 63 115 54 50 150 62 217 27z"/>
<path d="M28999 15057 c-139 -52 -208 -166 -196 -322 9 -118 63 -206 160 -257
35 -19 57 -23 132 -22 100 1 142 14 200 66 34 29 75 94 75 118 0 5 -22 10 -49
10 -45 0 -50 -3 -74 -38 -33 -50 -80 -72 -154 -72 -98 0 -164 54 -187 153 l-6
27 239 0 239 0 7 29 c8 39 -9 130 -34 179 -22 43 -73 92 -124 119 -43 22 -179
28 -228 10z m140 -78 c24 -5 57 -19 73 -30 31 -23 68 -86 68 -119 0 -19 -5
-20 -189 -20 l-190 0 8 28 c22 74 67 123 129 142 37 11 50 11 101 -1z"/>
<path d="M30014 15059 c-17 -5 -47 -25 -67 -44 l-37 -36 0 41 0 40 -50 0 -50
0 0 -300 0 -300 50 0 50 0 0 193 c0 180 1 196 23 237 24 50 57 70 124 78 l43
5 0 48 c0 47 -1 49 -27 48 -16 0 -42 -5 -59 -10z"/>
<path d="M30377 15056 c-46 -17 -99 -56 -131 -99 -82 -109 -73 -306 18 -413
96 -112 276 -123 389 -23 l47 41 0 -51 0 -51 50 0 50 0 0 300 0 300 -50 0 -50
0 0 -52 0 -52 -37 36 c-59 56 -112 78 -185 78 -35 -1 -80 -7 -101 -14z m231
-110 c99 -68 115 -253 29 -344 -92 -99 -260 -75 -318 45 -57 118 -21 259 80
314 55 30 155 23 209 -15z"/>
<path d="M32349 15056 c-133 -47 -200 -147 -200 -298 -1 -173 107 -294 272
-306 102 -7 170 18 239 87 65 65 90 128 90 227 0 177 -128 305 -303 304 -34
-1 -78 -7 -98 -14z m196 -99 c84 -48 124 -159 95 -265 -14 -54 -79 -127 -127
-143 -46 -15 -121 -7 -169 18 -99 51 -128 244 -52 343 55 71 172 93 253 47z"/>
<path d="M33030 15049 c-54 -24 -115 -81 -141 -131 -42 -81 -41 -221 1 -311
76 -161 304 -208 430 -88 l40 38 0 -49 0 -48 55 0 55 0 0 300 0 300 -55 0 -55
0 0 -47 0 -47 -32 31 c-75 72 -204 95 -298 52z m211 -83 c76 -32 119 -108 119
-208 -1 -80 -30 -142 -89 -183 -37 -26 -51 -30 -111 -30 -60 0 -74 4 -111 30
-55 39 -82 93 -87 173 -7 101 37 183 116 218 38 17 123 17 163 0z"/>
<path d="M33793 15049 c-113 -44 -183 -155 -183 -289 0 -126 52 -220 151 -275
49 -27 63 -30 144 -30 75 0 98 4 139 24 109 54 168 151 167 279 0 132 -49 220
-152 277 -73 39 -188 45 -266 14z m200 -83 c41 -17 91 -74 107 -122 20 -59 8
-166 -24 -212 -54 -77 -139 -108 -231 -82 -103 29 -160 163 -124 293 12 46 63
105 104 123 39 17 127 18 168 0z"/>
<path d="M9820 15040 c-20 -20 -26 -65 -12 -86 9 -14 47 -34 64 -34 8 0 24 9
36 20 44 41 15 120 -43 120 -14 0 -34 -9 -45 -20z"/>
<path d="M13250 14760 l0 -300 50 0 50 0 0 300 0 300 -50 0 -50 0 0 -300z"/>
<path d="M23874 15043 c3 -10 57 -144 120 -297 l114 -279 -50 -121 c-28 -67
-54 -131 -59 -143 -8 -22 -6 -23 44 -23 l52 0 172 423 c95 232 175 430 179
440 6 16 1 18 -46 15 l-52 -3 -89 -235 c-50 -129 -91 -236 -93 -237 -2 -2 -26
56 -54 129 -28 73 -69 181 -92 241 l-42 107 -55 0 c-47 0 -54 -2 -49 -17z"/>
<path d="M27930 14760 l0 -300 50 0 50 0 0 300 0 300 -50 0 -50 0 0 -300z"/>
<path d="M28142 15051 c2 -4 54 -139 117 -300 l115 -292 59 3 60 3 113 290
c63 159 114 293 114 298 0 4 -23 7 -52 5 l-51 -3 -91 -248 c-51 -139 -93 -242
-97 -235 -4 7 -46 120 -94 251 l-88 237 -54 0 c-30 0 -53 -4 -51 -9z"/>
<path d="M29530 14760 l0 -300 50 0 50 0 0 300 0 300 -50 0 -50 0 0 -300z"/>
<path d="M20201 14558 c-6 -24 -24 -92 -40 -151 l-30 -108 35 3 c35 3 36 4 90
133 76 182 75 165 11 165 l-55 0 -11 -42z"/>
<path d="M30960 14558 c-14 -52 -59 -216 -66 -240 -4 -15 1 -18 29 -18 l34 0
59 142 c33 78 61 145 62 150 2 4 -21 8 -52 8 l-55 0 -11 -42z"/>
<path d="M9820 14570 c-29 -29 -26 -74 6 -99 34 -26 54 -26 82 -1 44 41 15
120 -43 120 -14 0 -34 -9 -45 -20z"/>
<path d="M26737 13572 c-58 -64 33 -151 91 -89 26 27 28 54 6 85 -19 28 -74
30 -97 4z"/>
<path d="M31867 13572 c-58 -64 33 -151 91 -89 26 27 28 54 6 85 -19 28 -74
30 -97 4z"/>
<path d="M8710 13165 l0 -405 50 0 50 0 0 405 0 405 -50 0 -50 0 0 -405z"/>
<path d="M8990 13165 l0 -405 50 0 50 0 0 405 0 405 -50 0 -50 0 0 -405z"/>
<path d="M3427 13524 c-4 -4 -7 -178 -7 -386 l0 -378 185 0 185 0 0 40 0 40
-130 0 -130 0 -2 343 -3 342 -45 3 c-25 2 -49 0 -53 -4z"/>
<path d="M10640 13146 l0 -386 185 0 185 0 0 40 0 40 -135 0 -135 0 -2 343 -3
342 -47 3 -48 3 0 -385z"/>
<path d="M23950 13145 l0 -385 50 0 50 0 0 170 0 170 135 0 135 0 0 45 0 45
-135 0 -135 0 0 125 0 125 165 0 165 0 0 45 0 45 -215 0 -215 0 0 -385z"/>
<path d="M7060 13140 l0 -380 50 0 50 0 0 278 1 277 23 -45 c13 -25 69 -150
126 -277 l104 -233 37 0 37 0 123 278 124 277 3 -277 2 -278 50 0 50 0 0 380
0 381 -56 -3 -57 -3 -135 -302 c-74 -167 -138 -303 -141 -303 -4 0 -67 136
-142 303 l-135 302 -57 3 -57 3 0 -381z"/>
<path d="M14306 13217 c-60 -166 -122 -337 -138 -379 l-28 -78 54 0 53 0 30
83 30 82 168 0 168 0 30 -82 30 -83 53 0 54 0 -28 78 c-16 42 -78 213 -138
379 l-109 303 -60 0 -60 0 -109 -303z m239 -16 c36 -100 65 -185 65 -187 0 -2
-61 -4 -136 -4 -105 0 -135 3 -132 13 107 300 131 367 134 364 2 -1 33 -85 69
-186z"/>
<path d="M19420 13140 l0 -380 50 0 50 0 2 274 3 275 121 -272 121 -272 38 0
39 0 120 272 121 273 3 -275 2 -275 50 0 50 0 0 380 0 380 -52 0 -53 0 -128
-288 c-71 -158 -134 -298 -141 -310 -12 -22 -23 0 -151 287 l-139 311 -53 0
-53 0 0 -380z"/>
<path d="M29730 13140 l0 -380 50 0 50 0 0 277 c0 171 4 273 9 268 5 -6 63
-129 128 -275 l119 -265 37 0 38 0 122 275 122 274 3 -277 2 -277 50 0 50 0 0
380 0 380 -53 0 -54 0 -138 -310 c-76 -170 -141 -307 -144 -304 -3 3 -67 141
-141 307 l-136 302 -57 3 -57 3 0 -381z"/>
<path d="M15670 13435 l0 -75 -40 0 -40 0 0 -40 0 -40 40 0 40 0 0 -202 c0
-174 3 -208 18 -237 29 -59 62 -76 158 -80 l84 -3 0 46 0 46 -58 0 c-98 0 -97
-4 -100 229 l-3 201 80 0 81 0 0 40 0 40 -80 0 -80 0 0 75 0 75 -50 0 -50 0 0
-75z"/>
<path d="M21140 13435 l0 -75 -35 0 c-34 0 -35 -1 -35 -40 0 -39 1 -40 34 -40
l34 0 4 -207 c3 -226 8 -248 61 -287 22 -16 47 -22 113 -25 l84 -3 0 46 0 46
-57 0 c-32 0 -64 4 -71 8 -24 16 -32 78 -32 249 l0 173 80 0 80 0 0 40 0 39
-77 3 -78 3 -3 73 -3 72 -49 0 -50 0 0 -75z"/>
<path d="M4764 13354 c-61 -22 -119 -77 -151 -142 -25 -50 -28 -68 -28 -152 0
-112 22 -168 92 -236 52 -51 115 -74 202 -74 111 1 187 42 242 128 41 65 39
72 -24 72 -50 0 -53 -2 -72 -36 -28 -53 -83 -77 -160 -72 -112 7 -165 68 -173
199 -9 153 58 240 183 240 71 0 120 -24 148 -72 21 -37 24 -39 75 -39 29 0 52
5 52 10 0 44 -77 137 -139 167 -49 24 -191 28 -247 7z"/>
<path d="M5434 13351 c-104 -47 -164 -139 -172 -262 -6 -97 15 -171 67 -237
57 -71 114 -97 216 -97 90 1 126 14 188 73 l37 36 0 -52 0 -52 50 0 50 0 0
300 0 300 -50 0 -50 0 0 -51 0 -51 -25 30 c-14 17 -49 42 -77 56 -65 33 -170
36 -234 7z m207 -85 c81 -34 122 -102 122 -206 0 -100 -43 -170 -125 -205
-100 -41 -211 7 -254 110 -18 45 -21 138 -5 188 13 38 67 95 109 113 37 17
113 17 153 0z"/>
<path d="M6124 13345 c-62 -31 -97 -87 -96 -153 1 -84 52 -125 218 -177 116
-36 134 -49 134 -95 0 -12 -14 -35 -30 -52 -29 -29 -34 -30 -102 -26 -64 3
-73 7 -99 36 -16 18 -29 39 -29 47 0 11 -13 15 -55 15 -55 0 -55 0 -49 -27 24
-101 98 -153 226 -161 69 -4 84 -2 130 21 126 62 145 209 37 274 -19 11 -78
35 -131 52 -116 38 -148 61 -148 102 0 39 42 79 84 80 87 3 129 -16 147 -66
12 -33 15 -35 61 -35 45 0 48 2 48 25 0 55 -65 132 -129 154 -62 20 -161 14
-217 -14z"/>
<path d="M8163 13354 c-104 -38 -172 -140 -181 -270 -9 -140 45 -243 157 -301
51 -27 74 -33 125 -33 110 0 192 37 250 113 13 18 28 44 31 60 7 27 7 27 -44
27 -47 0 -54 -3 -69 -29 -28 -49 -88 -81 -151 -81 -100 0 -170 54 -191 145
l-8 35 242 2 241 3 0 55 c-1 117 -56 214 -149 262 -54 28 -191 35 -253 12z
m212 -98 c27 -14 47 -35 63 -66 41 -83 47 -80 -163 -80 l-185 0 0 23 c0 35 42
99 78 120 68 40 136 41 207 3z"/>
<path d="M9413 13349 c-61 -24 -123 -82 -155 -147 -19 -39 -23 -63 -23 -142 0
-108 21 -166 82 -226 62 -63 106 -79 213 -79 79 0 102 4 137 23 66 35 110 79
140 140 38 78 40 200 4 280 -29 65 -104 134 -168 156 -64 22 -166 20 -230 -5z
m229 -98 c62 -43 83 -84 86 -175 3 -70 0 -87 -21 -126 -13 -25 -43 -58 -66
-75 -37 -26 -51 -30 -110 -30 -86 0 -137 30 -172 102 -36 73 -33 176 7 240 43
69 92 95 175 91 50 -3 75 -9 101 -27z"/>
<path d="M11255 13346 c-108 -50 -167 -146 -168 -275 -1 -48 5 -95 17 -128 21
-62 84 -136 139 -165 94 -48 233 -30 307 41 l40 38 0 -49 0 -48 55 0 55 0 0
300 0 300 -55 0 -55 0 0 -47 0 -47 -32 31 c-81 77 -202 96 -303 49z m223 -85
c73 -37 112 -108 112 -201 0 -126 -86 -220 -202 -220 -170 0 -261 220 -151
368 51 69 162 93 241 53z"/>
<path d="M12785 13356 c-17 -7 -45 -28 -63 -45 l-32 -33 0 41 0 41 -50 0 -50
0 0 -300 0 -300 50 0 50 0 0 193 c0 169 3 197 20 235 22 48 78 81 138 82 32 0
32 0 32 50 0 50 0 50 -32 50 -18 -1 -47 -7 -63 -14z"/>
<path d="M13135 13346 c-64 -29 -129 -102 -151 -168 -26 -79 -16 -208 21 -277
57 -105 153 -158 269 -149 72 6 116 26 169 76 l37 36 0 -52 0 -52 50 0 50 0 0
300 0 300 -50 0 -50 0 0 -52 0 -52 -37 38 c-54 55 -104 76 -188 76 -53 0 -82
-6 -120 -24z m216 -80 c76 -32 119 -108 119 -208 -1 -101 -41 -169 -122 -203
-149 -62 -295 67 -273 240 17 139 152 223 276 171z"/>
<path d="M15145 13359 c-16 -6 -47 -24 -67 -41 l-38 -29 0 36 0 35 -50 0 -50
0 0 -300 0 -300 50 0 50 0 0 197 c0 180 2 200 21 240 54 112 229 113 293 3 19
-32 21 -55 25 -237 l3 -203 50 0 50 0 -3 218 -4 217 -31 55 c-45 79 -104 114
-198 117 -39 1 -84 -2 -101 -8z"/>
<path d="M16970 13355 c-19 -9 -50 -30 -67 -47 l-33 -32 0 42 0 42 -50 0 -50
0 0 -300 0 -300 49 0 49 0 4 203 c3 182 5 205 24 237 32 55 77 80 143 80 75 0
120 -24 149 -80 21 -42 22 -57 22 -242 l0 -198 50 0 50 0 0 203 c0 111 -5 218
-10 238 -15 52 -49 99 -97 133 -36 25 -53 30 -120 33 -56 2 -88 -1 -113 -12z"/>
<path d="M17630 13353 c-64 -23 -142 -105 -165 -172 -27 -83 -18 -209 20 -280
59 -108 157 -159 286 -148 120 10 215 78 244 175 6 21 4 22 -43 22 -45 0 -52
-3 -77 -36 -41 -54 -81 -74 -148 -74 -92 0 -155 40 -183 117 -23 67 -37 63
227 63 l242 0 -5 84 c-4 72 -9 92 -34 133 -35 56 -99 108 -152 123 -53 14
-160 11 -212 -7z m210 -95 c41 -22 75 -69 85 -115 l7 -33 -191 0 c-105 0 -191
2 -191 4 0 19 35 95 53 114 59 63 156 75 237 30z"/>
<path d="M18252 13344 c-78 -39 -116 -117 -92 -189 19 -58 75 -96 197 -134 59
-18 118 -42 131 -54 31 -29 28 -63 -9 -98 -28 -26 -38 -29 -96 -29 -61 0 -67
2 -99 34 -19 19 -34 41 -34 50 0 13 -11 16 -55 16 -55 0 -55 0 -49 -27 17 -70
59 -116 131 -143 131 -49 269 -6 315 97 46 103 -16 182 -177 227 -94 27 -142
53 -153 84 -21 60 27 105 112 105 64 0 101 -22 118 -69 11 -32 14 -34 61 -34
l50 0 -6 37 c-8 48 -53 103 -107 131 -65 32 -168 31 -238 -4z"/>
<path d="M20505 13346 c-107 -51 -166 -147 -168 -274 -1 -109 23 -173 87 -237
106 -107 274 -114 376 -16 l40 38 0 -49 0 -48 55 0 55 0 0 300 0 300 -55 0
-55 0 0 -47 0 -47 -32 31 c-81 77 -203 97 -303 49z m224 -86 c79 -40 116 -112
109 -214 -5 -78 -33 -132 -87 -171 -37 -26 -51 -30 -111 -30 -60 0 -74 4 -111
30 -55 39 -82 93 -87 173 -7 101 30 172 113 215 42 23 127 21 174 -3z"/>
<path d="M21700 13361 c-68 -21 -141 -83 -173 -147 -41 -82 -40 -221 3 -310
95 -195 410 -206 512 -17 15 27 25 53 21 57 -3 3 -27 6 -52 6 -42 0 -48 -4
-69 -35 -34 -54 -76 -75 -147 -75 -71 0 -116 21 -158 72 -15 19 -30 51 -34 71
l-6 37 243 0 243 0 -5 78 c-10 172 -120 274 -295 271 -32 0 -69 -4 -83 -8z
m181 -97 c35 -18 78 -69 85 -102 3 -15 7 -33 10 -39 3 -10 -39 -13 -186 -13
-146 0 -190 3 -190 13 1 24 38 92 63 115 54 51 149 62 218 26z"/>
<path d="M23014 13345 c-64 -32 -95 -79 -97 -144 -3 -88 47 -132 206 -181 56
-18 112 -41 125 -53 30 -28 28 -63 -7 -98 -27 -26 -36 -29 -94 -29 -56 0 -70
4 -97 27 -17 14 -36 37 -41 50 -7 20 -15 23 -59 23 -50 0 -50 0 -44 -27 17
-70 59 -116 131 -143 140 -52 292 3 323 118 26 97 -34 164 -185 206 -93 27
-142 53 -153 84 -21 60 29 107 113 106 63 -1 100 -24 117 -70 11 -32 14 -34
61 -34 l50 0 -6 37 c-8 48 -53 103 -107 131 -64 32 -168 31 -236 -3z"/>
<path d="M24656 13350 c-57 -22 -119 -78 -146 -131 -43 -83 -43 -225 0 -314
95 -196 409 -208 512 -18 15 27 25 53 21 57 -3 3 -27 6 -52 6 -42 0 -48 -4
-69 -35 -34 -54 -76 -75 -147 -75 -71 0 -116 21 -158 72 -15 19 -30 51 -34 71
l-6 37 243 0 243 0 -5 78 c-6 98 -41 170 -108 218 -78 57 -200 71 -294 34z
m205 -86 c35 -18 78 -69 85 -102 3 -15 7 -33 10 -39 3 -10 -39 -13 -186 -13
-146 0 -190 3 -190 13 1 24 38 92 63 115 54 51 149 62 218 26z"/>
<path d="M25394 13351 c-22 -10 -53 -34 -67 -52 l-27 -34 0 48 0 47 -50 0 -50
0 0 -300 0 -300 49 0 49 0 4 198 c3 167 6 203 21 234 22 44 84 78 140 78 l37
0 0 50 c0 50 0 50 -32 50 -18 0 -51 -9 -74 -19z"/>
<path d="M25814 13351 c-22 -10 -53 -34 -67 -52 l-27 -34 0 48 0 47 -50 0 -50
0 0 -300 0 -300 49 0 49 0 4 198 c3 167 6 203 21 234 22 44 84 78 140 78 l37
0 0 50 c0 50 0 50 -32 50 -18 0 -51 -9 -74 -19z"/>
<path d="M26186 13350 c-57 -22 -119 -78 -146 -131 -43 -83 -43 -220 0 -312
74 -156 290 -206 442 -101 39 27 102 120 92 136 -3 4 -26 8 -52 8 -43 0 -49
-3 -70 -35 -34 -54 -76 -75 -147 -75 -71 0 -116 21 -158 72 -15 19 -30 51 -34
71 l-6 37 243 0 243 0 -5 79 c-10 169 -121 272 -293 270 -35 0 -81 -8 -109
-19z m204 -85 c42 -22 78 -68 88 -112 l10 -43 -189 0 c-145 0 -189 3 -189 13
1 24 38 92 63 115 54 50 150 62 217 27z"/>
<path d="M27204 13351 c-22 -10 -53 -34 -67 -52 l-27 -34 0 48 0 47 -50 0 -50
0 0 -300 0 -300 49 0 49 0 4 198 c3 167 6 203 21 234 22 44 84 78 140 78 l37
0 0 50 c0 50 0 50 -32 50 -18 0 -51 -9 -74 -19z"/>
<path d="M27570 13349 c-54 -24 -115 -81 -140 -130 -43 -83 -43 -220 0 -312
76 -161 304 -208 430 -88 l40 38 0 -49 0 -48 55 0 55 0 0 300 0 300 -55 0 -55
0 0 -47 0 -47 -32 31 c-75 72 -204 95 -298 52z m218 -88 c77 -39 112 -104 112
-203 -1 -80 -30 -142 -89 -183 -37 -26 -51 -30 -111 -30 -60 0 -74 4 -111 30
-55 39 -82 93 -87 173 -7 101 30 172 113 215 42 23 127 21 173 -2z"/>
<path d="M28760 13353 c-64 -23 -141 -104 -163 -172 -36 -112 -14 -251 52
-331 132 -161 438 -113 496 78 6 21 4 22 -43 22 -45 0 -52 -3 -77 -36 -41 -54
-81 -74 -148 -74 -90 0 -150 37 -182 113 -29 71 -42 67 225 67 l240 0 0 63 c0
177 -115 289 -294 286 -34 0 -81 -8 -106 -16z m211 -94 c40 -20 73 -66 84
-116 l7 -33 -191 0 -191 0 6 28 c31 129 162 184 285 121z"/>
<path d="M30809 13338 c-77 -40 -122 -99 -145 -189 -55 -214 94 -415 296 -396
66 6 131 36 171 80 l29 31 0 -52 0 -52 50 0 50 0 0 300 0 300 -50 0 -50 0 0
-51 0 -51 -25 30 c-42 50 -118 82 -196 82 -56 0 -77 -5 -130 -32z m241 -78
c124 -63 149 -268 43 -366 -103 -95 -264 -60 -318 70 -20 48 -21 150 -1 196
17 40 70 94 106 109 43 17 127 13 170 -9z"/>
<path d="M31634 13351 c-22 -10 -53 -34 -67 -52 l-27 -34 0 48 0 47 -50 0 -50
0 0 -300 0 -300 49 0 49 0 4 198 c3 167 6 203 21 234 22 44 84 78 140 78 l37
0 0 50 c0 50 0 50 -32 50 -18 0 -51 -9 -74 -19z"/>
<path d="M32280 13349 c-54 -24 -115 -81 -141 -131 -42 -81 -41 -221 1 -311
76 -161 304 -208 430 -88 l40 38 0 -49 0 -48 55 0 55 0 0 300 0 300 -55 0 -55
0 0 -47 0 -47 -32 31 c-75 72 -204 95 -298 52z m211 -83 c76 -32 119 -108 119
-208 -1 -80 -30 -142 -89 -183 -37 -26 -51 -30 -111 -30 -60 0 -74 4 -111 30
-55 39 -82 93 -87 173 -7 101 30 172 113 215 38 20 122 21 166 3z"/>
<path d="M33096 13355 c-21 -7 -54 -28 -72 -46 l-34 -33 0 42 0 42 -50 0 -50
0 0 -300 0 -300 49 0 49 0 4 203 c3 182 5 205 24 237 32 55 77 80 143 80 76 0
120 -24 149 -80 21 -41 22 -57 22 -242 l0 -198 51 0 50 0 -3 223 c-3 207 -5
225 -25 264 -56 104 -188 151 -307 108z"/>
<path d="M33757 13356 c-46 -17 -99 -56 -131 -99 -82 -109 -73 -306 18 -413
96 -112 276 -123 389 -23 l47 41 0 -51 0 -51 50 0 50 0 0 300 0 300 -50 0 -50
0 0 -52 0 -52 -37 36 c-59 56 -112 78 -185 78 -35 -1 -80 -7 -101 -14z m231
-110 c99 -68 115 -253 29 -344 -92 -99 -260 -75 -318 45 -57 118 -21 259 80
314 55 30 155 23 209 -15z"/>
<path d="M3900 13162 c0 -150 4 -211 16 -251 46 -156 256 -213 384 -104 l40
35 0 -41 0 -41 50 0 50 0 0 300 0 300 -49 0 -49 0 -4 -202 c-3 -231 -10 -253
-84 -296 -50 -29 -139 -27 -182 5 -61 45 -67 69 -70 291 l-3 202 -50 0 -49 0
0 -198z"/>
<path d="M11872 13138 c3 -209 4 -226 25 -265 70 -129 260 -163 373 -66 l40
35 0 -41 0 -41 50 0 50 0 0 300 0 300 -49 0 -49 0 -4 -197 c-3 -174 -5 -203
-23 -238 -39 -77 -143 -107 -230 -65 -74 36 -80 56 -83 293 l-3 207 -50 0 -50
0 3 -222z"/>
<path d="M16052 13148 c4 -232 10 -263 66 -321 88 -93 252 -100 339 -15 l33
32 0 -42 0 -42 50 0 50 0 0 300 0 300 -49 0 -50 0 -3 -209 c-3 -230 -5 -235
-72 -285 -40 -30 -153 -30 -193 0 -62 46 -68 69 -72 292 l-3 202 -50 0 -50 0
4 -212z"/>
<path d="M22220 13154 c0 -237 6 -269 65 -330 42 -44 116 -74 180 -74 48 0
121 29 156 61 17 16 33 29 35 29 2 0 4 -18 4 -40 l0 -40 50 0 50 0 0 300 0
300 -49 0 -48 0 -5 -197 c-4 -175 -7 -203 -25 -238 -57 -109 -231 -115 -290
-10 -21 38 -23 51 -23 243 l0 202 -50 0 -50 0 0 -206z"/>
<path d="M26730 13060 l0 -300 50 0 50 0 0 300 0 300 -50 0 -50 0 0 -300z"/>
<path d="M31860 13060 l0 -300 50 0 50 0 0 300 0 300 -50 0 -50 0 0 -300z"/>
<path d="M9970 12895 c0 -5 -65 -244 -75 -276 -6 -18 -3 -20 30 -17 l37 3 53
127 c77 184 76 168 11 168 -31 0 -56 -2 -56 -5z"/>
<path d="M18737 12848 c-9 -29 -25 -89 -37 -133 -12 -44 -24 -88 -26 -97 -4
-15 1 -18 29 -18 l34 0 59 142 c33 78 61 145 62 150 2 4 -21 8 -51 8 l-56 0
-14 -52z"/>
<path d="M5450 11893 c-51 -19 -66 -77 -30 -113 51 -51 139 8 109 74 -9 19
-51 50 -62 45 -1 0 -9 -3 -17 -6z"/>
<path d="M4840 11465 l0 -405 50 0 49 0 3 130 3 131 115 -131 114 -130 70 0
70 0 -26 28 c-14 15 -77 83 -141 152 l-117 125 78 80 c42 44 106 110 142 148
l64 67 -72 0 -72 0 -112 -130 -113 -129 -3 234 -2 235 -50 0 -50 0 0 -405z"/>
<path d="M3427 11824 c-4 -4 -7 -178 -7 -386 l0 -378 55 0 55 0 0 170 0 171
153 -170 152 -170 69 -1 68 0 -83 91 c-46 50 -125 137 -176 192 l-91 101 136
149 c160 175 202 223 202 231 0 3 -26 6 -58 6 l-59 0 -156 -175 -157 -175 -2
172 -3 173 -45 3 c-25 2 -49 0 -53 -4z"/>
<path d="M7570 11735 l0 -75 -40 0 -40 0 0 -40 0 -40 40 0 40 0 0 -202 c0
-183 2 -206 20 -244 28 -56 67 -74 164 -74 l76 0 0 45 0 45 -57 0 c-32 0 -63
4 -70 8 -26 16 -33 69 -33 243 l0 179 80 0 80 0 0 40 0 39 -77 3 -78 3 -3 73
-3 72 -49 0 -50 0 0 -75z"/>
<path d="M4245 11657 c-141 -55 -218 -204 -185 -363 15 -72 31 -103 77 -155
59 -65 104 -84 203 -84 75 0 91 3 132 27 25 16 56 40 67 54 l21 27 0 -52 0
-51 55 0 55 0 0 300 0 300 -55 0 -55 0 0 -46 0 -46 -41 37 c-23 20 -56 43 -75
51 -40 17 -157 17 -199 1z m201 -96 c153 -70 152 -328 -1 -400 -137 -64 -284
36 -285 195 0 132 82 224 200 224 25 0 64 -9 86 -19z"/>
<path d="M5895 11656 c-16 -7 -45 -25 -62 -40 l-33 -28 0 36 0 36 -50 0 -50 0
0 -300 0 -300 50 0 50 0 0 189 c0 114 4 201 11 222 24 69 80 109 154 109 62 0
110 -24 137 -69 22 -34 23 -48 26 -243 l3 -208 49 0 48 0 4 203 c3 226 9 248
79 295 29 20 44 23 96 20 72 -5 108 -26 135 -79 15 -29 18 -63 18 -236 l0
-203 56 0 56 0 -4 213 -3 213 -30 59 c-40 78 -100 117 -189 123 -92 6 -143
-11 -197 -67 l-46 -48 -33 40 c-18 22 -52 48 -74 58 -49 22 -156 25 -201 5z"/>
<path d="M6993 11654 c-61 -22 -136 -94 -164 -156 -19 -43 -24 -70 -23 -138 0
-131 47 -215 153 -278 58 -34 175 -42 249 -18 64 22 135 84 170 150 24 45 27
62 27 146 0 79 -4 103 -23 141 -28 58 -81 113 -135 141 -55 28 -192 35 -254
12z m224 -106 c104 -69 119 -248 29 -346 -92 -103 -268 -72 -322 57 -11 25
-15 60 -12 117 4 94 27 139 93 180 56 35 153 31 212 -8z"/>
<path d="M8113 11653 c-61 -21 -136 -92 -164 -155 -19 -43 -24 -70 -23 -138 0
-131 47 -215 153 -278 58 -34 175 -42 249 -18 65 22 136 85 169 150 34 67 42
170 19 249 -22 77 -97 159 -172 186 -65 25 -168 27 -231 4z m224 -105 c104
-69 119 -248 29 -346 -92 -103 -268 -72 -322 57 -11 25 -15 60 -12 117 4 94
27 139 93 180 56 35 153 31 212 -8z"/>
<path d="M5420 11360 l0 -300 50 0 50 0 0 300 0 300 -50 0 -50 0 0 -300z"/>
<path d="M8662 11173 c-45 -39 -19 -123 38 -123 29 0 70 44 70 75 0 54 -66 84
-108 48z"/>
<path d="M15069 9571 c-77 -77 7 -208 106 -166 104 43 74 194 -38 195 -29 0
-46 -7 -68 -29z"/>
<path d="M18730 9200 l0 -340 74 0 c64 0 75 3 81 19 10 32 76 93 124 114 62
28 179 28 242 0 52 -23 102 -76 120 -130 8 -21 14 -76 14 -123 0 -68 -5 -96
-24 -138 -27 -61 -84 -114 -140 -130 -50 -16 -153 -15 -205 0 -54 16 -131 92
-147 147 l-12 41 -75 0 -74 0 7 -37 c23 -123 121 -228 256 -273 55 -19 80 -21
174 -18 129 6 195 30 269 99 157 144 162 467 10 616 -75 72 -141 97 -264 97
-112 0 -189 -25 -251 -81 l-39 -35 0 186 0 186 295 0 295 0 0 70 0 70 -365 0
-365 0 0 -340z"/>
<path d="M21057 9495 c-106 -27 -179 -82 -225 -169 -23 -44 -27 -63 -27 -141
0 -102 14 -140 71 -199 49 -50 111 -79 266 -124 189 -56 246 -87 273 -154 19
-49 19 -89 0 -135 -22 -52 -42 -72 -100 -99 -91 -43 -231 -27 -298 34 -25 22
-57 86 -57 112 0 19 -6 20 -86 20 l-86 0 7 -42 c22 -132 139 -238 295 -268
143 -27 276 0 371 74 75 59 111 128 117 223 6 98 -10 152 -65 213 -53 59 -110
88 -263 134 -161 48 -205 67 -245 105 -41 39 -49 63 -43 137 6 66 28 100 89
134 37 21 57 25 124 25 69 0 86 -4 127 -28 50 -29 83 -67 93 -110 7 -27 8 -27
92 -27 l85 0 -7 38 c-17 97 -106 196 -211 234 -75 27 -216 33 -297 13z"/>
<path d="M3497 9493 c-4 -3 -7 -267 -7 -585 l0 -578 80 0 80 0 0 260 0 260
205 0 205 0 0 65 0 65 -205 0 -205 0 0 195 0 195 255 0 256 0 -3 63 -3 62
-326 3 c-179 1 -328 -1 -332 -5z"/>
<path d="M8130 9493 c1 -4 98 -267 218 -583 l217 -575 90 -3 91 -3 213 565
c117 311 215 574 218 586 5 19 1 20 -74 20 l-79 0 -174 -477 c-95 -263 -178
-488 -184 -500 -9 -19 -37 49 -192 475 l-181 497 -82 3 c-44 2 -81 -1 -81 -5z"/>
<path d="M19707 9493 c-4 -3 -7 -267 -7 -586 l0 -579 258 5 c202 3 270 8 317
21 205 59 346 200 390 391 21 88 20 247 -1 333 -58 238 -245 386 -520 412
-121 11 -427 14 -437 3z m488 -138 c99 -21 166 -57 224 -120 160 -176 141
-538 -36 -681 -90 -74 -141 -87 -345 -92 l-178 -4 0 456 0 456 133 0 c78 0
161 -6 202 -15z"/>
<path d="M21750 8910 l0 -580 75 0 75 0 2 427 3 428 190 -428 190 -427 55 0
55 0 190 427 190 427 3 -427 2 -427 75 0 75 0 0 580 0 581 -82 -3 -81 -3 -211
-472 c-116 -260 -213 -473 -216 -473 -3 0 -100 213 -216 473 l-211 472 -81 3
-82 3 0 -581z"/>
<path d="M5387 9473 c-4 -3 -7 -55 -7 -114 l0 -108 -57 -3 -58 -3 -3 -62 -3
-63 60 0 59 0 4 -312 c3 -295 4 -316 24 -359 42 -89 109 -119 272 -119 l102 0
0 64 0 64 -95 4 c-148 5 -139 -17 -143 353 l-3 305 121 0 121 0 -3 63 -3 62
-117 3 -118 3 0 114 0 115 -73 0 c-41 0 -77 -3 -80 -7z"/>
<path d="M10340 9365 l0 -115 -60 0 -60 0 0 -65 0 -65 60 0 60 0 0 -312 c0
-309 0 -314 24 -365 19 -39 35 -58 73 -80 44 -26 57 -28 171 -32 l122 -3 0 65
0 65 -95 4 c-148 5 -139 -17 -143 353 l-3 305 120 0 121 0 0 65 0 65 -120 0
-120 0 0 115 0 115 -75 0 -75 0 0 -115z"/>
<path d="M14547 9474 c-4 -4 -7 -56 -7 -115 l0 -108 -57 -3 -58 -3 -3 -62 -3
-63 60 0 59 0 4 -312 c3 -311 3 -313 28 -363 44 -88 107 -115 268 -115 l102 0
0 64 0 64 -96 4 c-91 3 -97 5 -120 31 l-24 28 0 300 0 299 120 0 121 0 -3 63
-3 62 -117 3 -117 3 -3 112 -3 112 -70 3 c-39 1 -74 0 -78 -4z"/>
<path d="M4546 9249 c-65 -16 -153 -69 -202 -121 -174 -186 -163 -523 22 -698
170 -160 439 -154 590 13 l44 49 0 -81 0 -81 75 0 75 0 0 460 0 460 -75 0 -75
0 0 -79 0 -79 -58 57 c-75 76 -143 103 -267 107 -49 2 -107 -1 -129 -7z m294
-165 c60 -33 111 -97 135 -172 24 -71 17 -218 -12 -283 -50 -111 -147 -173
-273 -174 -128 0 -226 61 -279 175 -23 48 -26 68 -26 160 0 118 16 166 75 233
92 105 252 130 380 61z"/>
<path d="M6160 9245 c-142 -40 -245 -141 -292 -288 -16 -46 -21 -89 -21 -167
0 -121 21 -200 78 -286 177 -270 631 -246 767 41 l28 60 -82 3 c-54 2 -84 -1
-86 -8 -2 -6 -18 -30 -36 -53 -72 -96 -221 -127 -346 -71 -93 42 -146 113
-164 222 l-5 32 364 0 365 0 6 26 c11 43 -4 163 -27 230 -41 115 -125 202
-236 244 -76 30 -234 37 -313 15z m261 -140 c89 -45 139 -111 153 -202 l6 -43
-289 0 -289 0 9 41 c24 107 96 186 199 220 40 13 173 3 211 -16z"/>
<path d="M7128 9241 c-121 -39 -207 -113 -259 -225 -78 -167 -59 -393 46 -536
91 -124 249 -184 420 -160 103 15 172 46 240 111 50 48 115 152 115 186 0 10
-20 13 -80 13 l-80 0 -21 -45 c-26 -56 -85 -108 -141 -125 -24 -7 -74 -12
-111 -12 -85 1 -142 26 -196 89 -58 66 -76 126 -76 258 0 97 3 116 26 165 35
74 67 111 125 140 67 34 198 36 260 3 48 -26 111 -92 120 -128 6 -24 9 -25 90
-25 61 0 84 3 84 13 0 6 -13 39 -28 72 -51 106 -153 187 -273 214 -70 16 -197
12 -261 -8z"/>
<path d="M9541 9235 c-116 -40 -187 -98 -245 -198 -106 -179 -72 -450 72 -594
137 -137 356 -169 538 -78 175 86 266 257 251 469 -10 142 -70 256 -176 336
-78 59 -149 82 -266 87 -88 3 -109 1 -174 -22z m297 -147 c114 -54 168 -160
160 -316 -5 -103 -35 -178 -92 -234 -109 -106 -295 -116 -404 -22 -137 117
-148 396 -21 523 91 91 229 110 357 49z"/>
<path d="M11133 9245 c-137 -38 -231 -117 -291 -243 l-37 -77 0 -135 c1 -117
4 -143 24 -192 70 -178 227 -281 426 -281 216 0 385 122 446 325 18 57 20 86
16 171 -6 121 -14 152 -65 238 -46 76 -131 146 -219 179 -75 29 -225 36 -300
15z m228 -136 c48 -12 113 -60 143 -106 42 -63 58 -121 58 -213 0 -149 -57
-252 -170 -307 -49 -24 -69 -28 -142 -28 -76 0 -91 3 -139 30 -105 58 -153
151 -154 300 -1 110 21 178 77 242 79 90 187 117 327 82z"/>
<path d="M12186 9244 c-61 -22 -106 -54 -136 -96 l-29 -40 -3 69 -3 68 -75 0
-75 0 -3 -457 -2 -458 79 0 80 0 3 303 c3 302 3 303 29 352 36 70 96 106 189
113 l70 5 0 78 0 79 -42 -1 c-24 0 -60 -7 -82 -15z"/>
<path d="M12689 9246 c-155 -43 -269 -169 -305 -335 -61 -289 98 -551 359
-592 130 -20 259 22 352 115 l55 55 0 -80 0 -79 75 0 75 0 0 460 0 460 -75 0
-75 0 0 -82 -1 -83 -31 38 c-92 113 -274 165 -429 123z m289 -158 c110 -52
165 -154 164 -302 -1 -144 -59 -249 -170 -303 -48 -24 -69 -28 -137 -28 -131
1 -219 57 -274 174 -23 49 -26 69 -26 161 0 121 16 168 81 239 91 101 228 124
362 59z"/>
<path d="M13806 9238 c-39 -13 -75 -37 -107 -67 l-49 -47 0 63 0 63 -75 0 -75
0 0 -460 0 -460 75 0 75 0 0 273 c0 293 8 359 50 420 48 70 147 113 238 103
106 -12 164 -52 204 -140 22 -49 23 -62 26 -353 l4 -303 74 0 74 0 0 296 c0
232 -3 310 -16 364 -25 113 -92 193 -201 242 -71 32 -217 35 -297 6z"/>
<path d="M15729 9242 c-56 -21 -119 -63 -139 -94 -14 -22 -15 -20 -20 37 l-5
60 -75 0 -75 0 -3 -457 -2 -458 80 0 80 0 0 288 c0 335 5 366 73 436 44 46
116 76 182 76 61 0 135 -30 175 -70 65 -65 70 -99 70 -437 l0 -293 80 0 80 0
0 288 c0 335 5 366 73 436 44 46 116 76 182 76 61 0 135 -30 175 -70 65 -65
70 -99 70 -437 l0 -293 80 0 80 0 0 273 c0 149 -5 303 -10 341 -20 136 -80
225 -188 278 -56 28 -79 34 -152 36 -101 4 -146 -6 -220 -50 -47 -29 -105 -89
-124 -130 -5 -10 -7 -11 -12 0 -24 51 -89 113 -150 143 -60 30 -78 34 -163 36
-72 2 -108 -2 -142 -15z"/>
<path d="M15060 8790 l0 -460 75 0 75 0 0 460 0 460 -75 0 -75 0 0 -460z"/>
<path d="M17430 8945 l0 -65 335 0 335 0 0 65 0 65 -335 0 -335 0 0 -65z"/>
</g>
</svg>
